<?xml version="1.0" encoding="UTF-8" standalone="no"?>
<!-- Created with Inkscape (http://www.inkscape.org/) -->

<svg
   xmlns:dc="http://purl.org/dc/elements/1.1/"
   xmlns:cc="http://creativecommons.org/ns#"
   xmlns:rdf="http://www.w3.org/1999/02/22-rdf-syntax-ns#"
   xmlns:svg="http://www.w3.org/2000/svg"
   xmlns="http://www.w3.org/2000/svg"
   xmlns:xlink="http://www.w3.org/1999/xlink"
   xmlns:sodipodi="http://sodipodi.sourceforge.net/DTD/sodipodi-0.dtd"
   xmlns:inkscape="http://www.inkscape.org/namespaces/inkscape"
   width="159.42467"
   height="146.47993"
   viewBox="0 0 42.181107 38.75615"
   version="1.1"
   id="svg23489"
   inkscape:version="0.48.5 r10040"
   sodipodi:docname="chest_closed.svg">
  <defs
     id="defs23483">
    <linearGradient
       inkscape:collect="always"
       xlink:href="#linearGradient41385-9"
       id="linearGradient11944-3"
       gradientUnits="userSpaceOnUse"
       x1="-10.893135"
       y1="460.19473"
       x2="-10.394925"
       y2="462.05408" />
    <linearGradient
       inkscape:collect="always"
       id="linearGradient41385-9">
      <stop
         style="stop-color:#2b2200;stop-opacity:1;"
         offset="0"
         id="stop41387-1" />
      <stop
         style="stop-color:#514000;stop-opacity:1"
         offset="1"
         id="stop41389-0" />
    </linearGradient>
    <linearGradient
       inkscape:collect="always"
       xlink:href="#linearGradient9676"
       id="linearGradient9981"
       gradientUnits="userSpaceOnUse"
       x1="338.64972"
       y1="534.05292"
       x2="359.19449"
       y2="522.19141" />
    <linearGradient
       inkscape:collect="always"
       id="linearGradient9676">
      <stop
         style="stop-color:#467aca;stop-opacity:1;"
         offset="0"
         id="stop9678" />
      <stop
         style="stop-color:#3060a9;stop-opacity:1"
         offset="1"
         id="stop9680" />
    </linearGradient>
    <linearGradient
       inkscape:collect="always"
       xlink:href="#linearGradient9237"
       id="linearGradient9495"
       gradientUnits="userSpaceOnUse"
       x1="286.26813"
       y1="315.76935"
       x2="286.26813"
       y2="304.36136" />
    <linearGradient
       inkscape:collect="always"
       id="linearGradient9237">
      <stop
         style="stop-color:#c4ddee;stop-opacity:1;"
         offset="0"
         id="stop9239" />
      <stop
         style="stop-color:#e6f0f8;stop-opacity:1"
         offset="1"
         id="stop9241" />
    </linearGradient>
    <linearGradient
       inkscape:collect="always"
       xlink:href="#linearGradient9237"
       id="linearGradient9497"
       gradientUnits="userSpaceOnUse"
       x1="286.26813"
       y1="315.76935"
       x2="286.26813"
       y2="304.36136" />
    <linearGradient
       inkscape:collect="always"
       xlink:href="#linearGradient9237"
       id="linearGradient13374"
       gradientUnits="userSpaceOnUse"
       x1="286.26813"
       y1="315.76935"
       x2="286.26813"
       y2="304.36136" />
    <linearGradient
       inkscape:collect="always"
       xlink:href="#linearGradient9237"
       id="linearGradient13376"
       gradientUnits="userSpaceOnUse"
       x1="286.26813"
       y1="315.76935"
       x2="286.26813"
       y2="304.36136" />
    <linearGradient
       inkscape:collect="always"
       xlink:href="#linearGradient9676"
       id="linearGradient13382"
       gradientUnits="userSpaceOnUse"
       x1="338.64972"
       y1="534.05292"
       x2="359.19449"
       y2="522.19141" />
    <linearGradient
       inkscape:collect="always"
       xlink:href="#linearGradient9676"
       id="linearGradient13556"
       gradientUnits="userSpaceOnUse"
       x1="338.64972"
       y1="534.05292"
       x2="359.19449"
       y2="522.19141" />
  </defs>
  <sodipodi:namedview
     id="base"
     pagecolor="#7d848b"
     bordercolor="#666666"
     borderopacity="1.0"
     inkscape:pageopacity="0"
     inkscape:pageshadow="2"
     inkscape:zoom="2.9355556"
     inkscape:cx="-35.302619"
     inkscape:cy="79.540712"
     inkscape:document-units="px"
     inkscape:current-layer="layer1"
     showgrid="false"
     inkscape:pagecheckerboard="false"
     showborder="true"
     units="px"
     inkscape:window-width="1920"
     inkscape:window-height="1017"
     inkscape:window-x="-8"
     inkscape:window-y="-8"
     inkscape:window-maximized="1"
     inkscape:showpageshadow="false"
     guidetolerance="28"
     fit-margin-top="0"
     fit-margin-left="0"
     fit-margin-right="0"
     fit-margin-bottom="0">
    <inkscape:grid
       type="xygrid"
       id="grid24034"
       spacingx="1px"
       spacingy="1px"
       empspacing="8"
       visible="true"
       enabled="true"
       snapvisiblegridlinesonly="true"
       originx="-143.13677px"
       originy="-788.57832px" />
  </sodipodi:namedview>
  <metadata
     id="metadata23486">
    <rdf:RDF>
      <cc:Work
         rdf:about="">
        <dc:format>image/svg+xml</dc:format>
        <dc:type
           rdf:resource="http://purl.org/dc/dcmitype/StillImage" />
        <dc:title></dc:title>
        <cc:license
           rdf:resource="" />
        <dc:creator>
          <cc:Agent>
            <dc:title>Robert Brooks</dc:title>
          </cc:Agent>
        </dc:creator>
      </cc:Work>
    </rdf:RDF>
  </metadata>
  <g
     inkscape:label="Layer 1"
     inkscape:groupmode="layer"
     id="layer1"
     transform="translate(-37.871603,-49.599155)">
    <g
       id="g13523"
       gds_color="colored part">
      <g
         transform="matrix(0.8504056,0,0,0.8504056,-236.92124,-377.07923)"
         id="g9527">
        <path
           sodipodi:nodetypes="ccccccccc"
           inkscape:connector-curvature="0"
           id="rect9529"
           d="m 332.3878,519.30695 31.08857,0 0.89241,0.89241 0,19.5595 -0.89241,0.89242 -31.08857,0 -0.89241,-0.89242 0,-19.5595 z"
           style="color:#000000;fill:#2477b3;fill-opacity:1;fill-rule:nonzero;stroke:#081c2a;stroke-width:2.96720934;stroke-linejoin:round;stroke-miterlimit:4;stroke-opacity:1;marker:none;visibility:visible;display:inline;overflow:visible;enable-background:accumulate" />
        <path
           sodipodi:nodetypes="ccccccccc"
           inkscape:connector-curvature="0"
           id="rect9531"
           d="m 332.33203,519.30695 31.20011,0 0.83664,0.83663 0,19.67106 -0.83664,0.83664 -31.20011,0 -0.83664,-0.83664 0,-19.67106 z"
           style="color:#000000;fill:#467aca;fill-opacity:1;fill-rule:nonzero;stroke:none;stroke-width:10;marker:none;visibility:visible;display:inline;overflow:visible;enable-background:accumulate" />
        <path
           style="color:#000000;fill:#234983;fill-opacity:1;fill-rule:nonzero;stroke:none;stroke-width:10;marker:none;visibility:visible;display:inline;overflow:visible;enable-background:accumulate"
           d="m 333.46023,520.71865 28.94371,0 0.76566,0.76566 c 0.22291,6.61365 0.2233,11.86329 0,16.98959 l -0.76566,0.76567 c -9.6479,0.20152 -19.29581,0.24384 -28.94371,0 l -0.76566,-0.76567 c -0.18604,-5.31249 -0.25769,-10.34591 0,-16.98959 z"
           id="path9652"
           inkscape:connector-curvature="0"
           sodipodi:nodetypes="ccccccccc" />
        <path
           id="path9658"
           transform="matrix(0.31112605,0,0,0.31112605,-512.28453,27.037467)"
           d="m 2718.3125,1586.3125 -2.2187,2.2187 c 2.9192,1.7496 7.171,4.291 9.3124,5.4688 l 0,-0.125 1.4688,-1.4688 1.1562,0 c -3.6254,-2.1767 -7.7539,-4.7004 -9.7187,-6.0937 z m 93.7187,0 c -1.9648,1.3933 -6.0932,3.917 -9.7187,6.0937 l 0.5313,0 1.75,1.75 c 1.9643,-1.0523 6.5581,-3.7682 9.6562,-5.625 l -2.2188,-2.2187 z m -7.1874,52.1875 0,0.125 -1.9063,1.9062 c 3.4323,2.069 7.2996,4.4465 9.0937,5.7188 l 2.2188,-2.2188 c -2.9724,-1.7815 -7.3107,-4.3864 -9.4062,-5.5312 z m -79.8126,0.2812 c -2.269,1.2739 -6.2241,3.6238 -8.9374,5.25 l 2.2187,2.2188 c 1.757,-1.246 5.5878,-3.5849 8.9687,-5.625 l -0.4062,0 -1.8438,-1.8438 z"
           style="color:#000000;fill:#173158;fill-opacity:1;fill-rule:nonzero;stroke:none;stroke-width:10;marker:none;visibility:visible;display:inline;overflow:visible;enable-background:accumulate"
           inkscape:connector-curvature="0" />
        <path
           sodipodi:nodetypes="ccccccccc"
           inkscape:connector-curvature="0"
           id="path9654"
           d="m 336.11665,522.47558 23.63087,0 0.62512,0.62513 0,13.75679 -0.62512,0.62513 -23.63087,0 -0.62512,-0.62513 0.16733,-13.92412 z"
           style="color:#000000;fill:url(#linearGradient13556);fill-opacity:1;fill-rule:nonzero;stroke:none;stroke-width:10;marker:none;visibility:visible;display:inline;overflow:visible;enable-background:accumulate" />
        <path
           inkscape:connector-curvature="0"
           id="path9670"
           transform="matrix(0.31112605,0,0,0.31112605,-493.748,14.574607)"
           d="m 2652.4688,1624.9375 -0.031,0.031 0,63.2187 2.6875,2.6875 100.2812,0 2.6876,-2.6875 0,-63.2187 -0.031,-0.031 -1.5625,61.4687 -2.6875,2.6876 -97.25,0 -2.6875,-2.6876 -1.4062,-61.4687 z"
           style="color:#000000;fill:#5e98f0;fill-opacity:1;fill-rule:nonzero;stroke:none;stroke-width:10;marker:none;visibility:visible;display:inline;overflow:visible;enable-background:accumulate" />
      </g>
      <path
         sodipodi:nodetypes="cccccccccccccc"
         inkscape:connector-curvature="0"
         id="path9666"
         d="m 69.04402,66.83398 -18.87945,0.42953 18.63969,-0.14015 0.57049,0.33073 0.38034,12.23698 0,-12.28656 z m -20.58789,4.12584 -0.23151,8.65685 0.66146,0.47127 18.40508,-0.14054 -18.32264,-0.0792 -0.53057,-0.3978 z"
         style="color:#000000;fill:#1b365f;fill-opacity:1;fill-rule:nonzero;stroke:none;stroke-width:2;marker:none;visibility:visible;display:inline;overflow:visible;enable-background:accumulate" />
      <g
         id="g9503"
         transform="matrix(0.81105011,0,0,0.81105011,-180.73599,-180.90745)">
        <path
           style="color:#000000;fill:#c4ddee;fill-opacity:1;fill-rule:nonzero;stroke:#081c2a;stroke-width:3.11126065;stroke-linecap:round;stroke-linejoin:round;stroke-miterlimit:4;stroke-opacity:1;stroke-dasharray:none;stroke-dashoffset:0;marker:none;visibility:visible;display:inline;overflow:visible;enable-background:accumulate"
           d="m 280.46476,294.10774 0,5.39081 9.3114,0 0,-5.39081 c 0.0352,-0.24617 -9.3114,-0.35167 -9.3114,0 z"
           id="path9505"
           inkscape:connector-curvature="0"
           sodipodi:nodetypes="ccccc" />
        <path
           sodipodi:nodetypes="ccccc"
           inkscape:connector-curvature="0"
           id="path9507"
           d="m 280.46476,294.10774 0,5.39081 9.3114,0 0,-5.39081 c 0,-0.211 -9.24107,-0.5275 -9.3114,0 z"
           style="color:#000000;fill:#c4ddee;fill-opacity:1;fill-rule:nonzero;stroke:#081c2a;stroke-width:0;stroke-linecap:round;stroke-linejoin:round;stroke-miterlimit:4;stroke-opacity:1;stroke-dasharray:none;stroke-dashoffset:0;marker:none;visibility:visible;display:inline;overflow:visible;enable-background:accumulate" />
        <path
           inkscape:connector-curvature="0"
           id="path9509"
           transform="matrix(0.27742201,0,0,0.27742201,-200.3629,-171.47652)"
           d="m 1737.9375,1677.375 c -2.7864,0.1564 -4.6912,0.4341 -4.75,0.875 l 0,19.0312 c 0.3733,0.1316 0.7656,0.2761 1.1563,0.4063 l 32.4062,0 0,-14.1875 -11.4688,0 -1.875,-1.7812 -15.3437,0 c 0,0 -0.1357,-2.3754 -0.125,-4.3438 z"
           style="color:#000000;fill:#72aedc;fill-opacity:1;fill-rule:nonzero;stroke:#081c2a;stroke-width:0;stroke-linecap:round;stroke-linejoin:round;stroke-miterlimit:4;stroke-opacity:1;stroke-dasharray:none;stroke-dashoffset:0;marker:none;visibility:visible;display:inline;overflow:visible;enable-background:accumulate" />
        <path
           sodipodi:nodetypes="cccccccsc"
           inkscape:connector-curvature="0"
           id="path9511"
           transform="matrix(0.27742201,0,0,0.27742201,-200.3629,-171.47652)"
           d="m 1743.9375,1677.2188 c -5.8925,0.038 -10.6549,0.3182 -10.75,1.0312 l 0,7.125 c 0.4104,-2.8453 1.021,-6.0958 1.5625,-6.3125 0.6338,-0.2535 28.654,0 28.654,0 l 0,18.625 3.346,0 0,-19.4375 c 0,-0.4754 -12.9917,-1.0944 -22.8125,-1.0312 z"
           style="color:#000000;fill:#ffffff;fill-opacity:1;fill-rule:nonzero;stroke:#081c2a;stroke-width:0;stroke-linecap:round;stroke-linejoin:round;stroke-miterlimit:4;stroke-opacity:1;stroke-dasharray:none;stroke-dashoffset:0;marker:none;visibility:visible;display:inline;overflow:visible;enable-background:accumulate" />
        <path
           inkscape:connector-curvature="0"
           id="path9513"
           transform="matrix(0.27742201,0,0,0.27742201,-200.3629,-171.47652)"
           d="m 1741.0938,1677.25 c -0.4902,0.011 -0.9159,0.046 -1.375,0.062 -0.047,2.0387 -0.125,4 -0.125,4 l -0.063,1.0313 1.0626,0 17.25,0 0,15.3437 2,0 0,-16.3437 0,-1 -1,0 -17.2188,0 c 0.028,-0.6331 0.061,-1.6002 0.094,-3.0938 -0.2028,0 -0.4268,0 -0.625,0 z"
           style="color:#000000;fill:#15496d;fill-opacity:1;fill-rule:nonzero;stroke:#081c2a;stroke-width:0;stroke-linecap:round;stroke-linejoin:round;stroke-miterlimit:4;stroke-opacity:1;stroke-dasharray:none;stroke-dashoffset:0;marker:none;visibility:visible;display:inline;overflow:visible;enable-background:accumulate" />
      </g>
      <g
         transform="matrix(-0.81105011,0,0,0.81105011,299.34475,-180.90745)"
         id="g9515">
        <path
           sodipodi:nodetypes="ccccc"
           inkscape:connector-curvature="0"
           id="path9517"
           d="m 280.46476,294.10774 0,5.39081 9.3114,0 0,-5.39081 c 0.0352,-0.24617 -9.3114,-0.35167 -9.3114,0 z"
           style="color:#000000;fill:#c4ddee;fill-opacity:1;fill-rule:nonzero;stroke:#081c2a;stroke-width:3.11126065;stroke-linecap:round;stroke-linejoin:round;stroke-miterlimit:4;stroke-opacity:1;stroke-dasharray:none;stroke-dashoffset:0;marker:none;visibility:visible;display:inline;overflow:visible;enable-background:accumulate" />
        <path
           style="color:#000000;fill:#c4ddee;fill-opacity:1;fill-rule:nonzero;stroke:#081c2a;stroke-width:0;stroke-linecap:round;stroke-linejoin:round;stroke-miterlimit:4;stroke-opacity:1;stroke-dasharray:none;stroke-dashoffset:0;marker:none;visibility:visible;display:inline;overflow:visible;enable-background:accumulate"
           d="m 280.46476,294.10774 0,5.39081 9.3114,0 0,-5.39081 c 0,-0.211 -9.24107,-0.5275 -9.3114,0 z"
           id="path9519"
           inkscape:connector-curvature="0"
           sodipodi:nodetypes="ccccc" />
        <path
           inkscape:connector-curvature="0"
           style="color:#000000;fill:#72aedc;fill-opacity:1;fill-rule:nonzero;stroke:#081c2a;stroke-width:0;stroke-linecap:round;stroke-linejoin:round;stroke-miterlimit:4;stroke-opacity:1;stroke-dasharray:none;stroke-dashoffset:0;marker:none;visibility:visible;display:inline;overflow:visible;enable-background:accumulate"
           d="m 1737.9375,1677.375 c -2.7864,0.1564 -4.6912,0.4341 -4.75,0.875 l 0,19.0312 c 0.3733,0.1316 0.7656,0.2761 1.1563,0.4063 l 32.4062,0 0,-14.1875 -11.4688,0 -1.875,-1.7812 -15.3437,0 c 0,0 -0.1357,-2.3754 -0.125,-4.3438 z"
           transform="matrix(0.27742201,0,0,0.27742201,-200.3629,-171.47652)"
           id="path9521" />
        <path
           style="color:#000000;fill:#ffffff;fill-opacity:1;fill-rule:nonzero;stroke:#081c2a;stroke-width:0;stroke-linecap:round;stroke-linejoin:round;stroke-miterlimit:4;stroke-opacity:1;stroke-dasharray:none;stroke-dashoffset:0;marker:none;visibility:visible;display:inline;overflow:visible;enable-background:accumulate"
           d="m 1743.9375,1677.2188 c -5.8925,0.038 -10.6549,0.3182 -10.75,1.0312 l 0,7.125 c 0.4104,-2.8453 1.021,-6.0958 1.5625,-6.3125 0.6338,-0.2535 28.654,0 28.654,0 l 0,18.625 3.346,0 0,-19.4375 c 0,-0.4754 -12.9917,-1.0944 -22.8125,-1.0312 z"
           transform="matrix(0.27742201,0,0,0.27742201,-200.3629,-171.47652)"
           id="path9523"
           inkscape:connector-curvature="0"
           sodipodi:nodetypes="cccccccsc" />
        <path
           inkscape:connector-curvature="0"
           style="color:#000000;fill:#15496d;fill-opacity:1;fill-rule:nonzero;stroke:#081c2a;stroke-width:0;stroke-linecap:round;stroke-linejoin:round;stroke-miterlimit:4;stroke-opacity:1;stroke-dasharray:none;stroke-dashoffset:0;marker:none;visibility:visible;display:inline;overflow:visible;enable-background:accumulate"
           d="m 1741.0938,1677.25 c -0.4902,0.011 -0.9159,0.046 -1.375,0.062 -0.047,2.0387 -0.125,4 -0.125,4 l -0.063,1.0313 1.0626,0 17.25,0 0,15.3437 2,0 0,-16.3437 0,-1 -1,0 -17.2188,0 c 0.028,-0.6331 0.061,-1.6002 0.094,-3.0938 -0.2028,0 -0.4268,0 -0.625,0 z"
           transform="matrix(0.27742201,0,0,0.27742201,-200.3629,-171.47652)"
           id="path9525" />
      </g>
      <path
         inkscape:connector-curvature="0"
         id="path9711"
         d="m 42.13501,59.45877 c 0,0.18973 2.70364,4.36375 2.70364,4.36375 l 28.17461,0 1.99215,-4.36375 z"
         style="color:#000000;fill:#467aca;fill-opacity:1;fill-rule:nonzero;stroke:#081c2a;stroke-width:2.11666679;stroke-linecap:round;stroke-linejoin:round;stroke-miterlimit:4;stroke-opacity:1;stroke-dasharray:none;stroke-dashoffset:0;marker:none;visibility:visible;display:inline;overflow:visible;enable-background:accumulate" />
      <path
         style="color:#000000;fill:#234983;fill-opacity:1;fill-rule:nonzero;stroke:none;stroke-width:8;marker:none;visibility:visible;display:inline;overflow:visible;enable-background:accumulate"
         d="m 42.13501,59.45877 c 0,0.18973 2.70364,4.36375 2.70364,4.36375 l 28.17461,0 1.99215,-4.36375 z"
         id="path9713"
         inkscape:connector-curvature="0" />
      <path
         sodipodi:nodetypes="ccccc"
         inkscape:connector-curvature="0"
         id="path9715"
         d="m 43.20506,59.9805 c 0,0.15055 2.14527,3.46255 2.14527,3.46255 l 27.09916,0 1.58072,-3.46255 z"
         style="color:#000000;fill:#173158;fill-opacity:1;fill-rule:nonzero;stroke:none;stroke-width:8;marker:none;visibility:visible;display:inline;overflow:visible;enable-background:accumulate" />
      <path
         sodipodi:nodetypes="cccccc"
         inkscape:connector-curvature="0"
         id="path9850"
         d="m 45.55501,62.0701 -0.17073,1.37253 27.06193,0 0.0413,-0.0827 -0.0578,-1.28984 z"
         style="color:#000000;fill:#3c6eba;fill-opacity:1;fill-rule:nonzero;stroke:none;stroke-width:2;marker:none;visibility:visible;display:inline;overflow:visible;enable-background:accumulate" />
      <g
         transform="matrix(0.88277347,0,0,0.88277347,-468.5878,-375.03855)"
         id="g9703">
        <path
           sodipodi:nodetypes="cccccccccc"
           inkscape:connector-curvature="0"
           style="color:#000000;fill:#95c2e5;fill-opacity:1;fill-rule:nonzero;stroke:#081c2a;stroke-width:9.06234741;stroke-linejoin:round;stroke-miterlimit:4;stroke-opacity:1;stroke-dasharray:none;marker:none;visibility:visible;display:inline;overflow:visible;enable-background:accumulate"
           d="m 2650.6875,1570.5625 0,11.7187 c 0.2128,2.4628 2.875,1.9688 2.875,1.9688 l 0.4063,0 0,3.9375 140.2812,0 -0.031,-3.9063 c 0.6818,0.1504 3.3124,0.5248 3.3124,-3.0937 L 2797.4062,1570 z"
           transform="matrix(0.26458334,0,0,0.26458334,-123.02949,72.103469)"
           id="path9696" />
        <path
           sodipodi:nodetypes="cccccc"
           inkscape:connector-curvature="0"
           id="path9694"
           d="m 595.96971,487.95656 -16.80046,0.92925 0,3.42495 37.10948,0 -0.032,-3.56866 z"
           style="color:#000000;fill:#467aca;fill-opacity:1;fill-rule:nonzero;stroke:none;stroke-width:2;marker:none;visibility:visible;display:inline;overflow:visible;enable-background:accumulate" />
        <path
           style="color:#000000;fill:#3c6eba;fill-opacity:1;fill-rule:nonzero;stroke:none;stroke-width:2;marker:none;visibility:visible;display:inline;overflow:visible;enable-background:accumulate"
           d="m 595.88758,487.53559 -17.58701,0.11306 0,3.09686 c 0.0563,0.65159 0.7589,0.52175 0.7589,0.52175 l 37.13928,0 c 0,0 0.94866,0.28641 0.94866,-0.80634 l -0.0335,-2.9627 z"
           id="path9692"
           inkscape:connector-curvature="0"
           sodipodi:nodetypes="cccccccc" />
        <path
           sodipodi:nodetypes="cccccccc"
           inkscape:connector-curvature="0"
           id="path9763"
           d="m 595.88758,487.50655 -17.58701,0.0252 0,0.69034 c 0.0563,0.14525 0.7589,0.11631 0.7589,0.11631 l 37.13928,0 c 0,0 0.94866,0.0638 0.94866,-0.17975 l -0.0335,-0.66043 z"
           style="color:#000000;fill:#6193df;fill-opacity:1;fill-rule:nonzero;stroke:none;stroke-width:2;marker:none;visibility:visible;display:inline;overflow:visible;enable-background:accumulate" />
      </g>
    </g>
    <g
       id="g13491"
       gds_color="white part">
      <g
         id="g13479">
        <path
           style="color:#000000;fill:#e6f0f8;fill-opacity:1;fill-rule:nonzero;stroke:#081c2a;stroke-width:2.11666679;stroke-linejoin:round;stroke-opacity:1;marker:none;visibility:visible;display:inline;overflow:visible;enable-background:accumulate"
           d="m 47.78897,63.7678 5.180595,0 c 0.05786,0 0.104457,0.04657 0.104457,0.104431 l 0,1.133819 c 0,0.05786 -0.04659,0.104431 -0.104457,0.104431 l -5.180595,0 c -0.05786,0 -0.104431,-0.04657 -0.104431,-0.104431 l 0,-1.133819 c 0,-0.05786 0.04657,-0.104431 0.104431,-0.104431 z"
           id="rect9719"
           inkscape:connector-curvature="0"
           sodipodi:nodetypes="sssssssss" />
        <path
           style="color:#000000;fill:#7dbae2;fill-opacity:1;fill-rule:nonzero;stroke:none;stroke-width:8;marker:none;visibility:visible;display:inline;overflow:visible;enable-background:accumulate"
           d="m 47.893878,63.7678 4.970806,0 c 0.115967,0 0.209338,0.09337 0.209338,0.209312 l 0,0.924031 c 0,0.115967 -0.09337,0.209338 -0.209338,0.209338 l -4.970806,0 c -0.115967,0 -0.209339,-0.09337 -0.209339,-0.209338 l 0,-0.924031 c 0,-0.115941 0.09337,-0.209312 0.209339,-0.209312 z"
           id="rect9717"
           inkscape:connector-curvature="0"
           sodipodi:nodetypes="sssssssss" />
        <path
           inkscape:connector-curvature="0"
           id="path9834"
           d="m 47.89782,63.765075 c -0.115967,0 -0.214948,0.09903 -0.214948,0.215 l 0,0.363802 c 0,-0.115967 0.09898,-0.206719 0.214948,-0.206719 l 4.969219,0 c 0,0 0.206719,0.09075 0.206719,0.206719 l 0,-0.363802 c 0,-0.115967 -0.09075,-0.215 -0.206719,-0.215 l -4.969219,0 z"
           style="color:#000000;fill:#c7e0f2;fill-opacity:1;fill-rule:nonzero;stroke:none;stroke-width:8;marker:none;visibility:visible;display:inline;overflow:visible;enable-background:accumulate" />
        <path
           inkscape:connector-curvature="0"
           id="path9831"
           d="m 49.08019,63.765075 c -0.03548,0.544036 -0.02567,1.017508 -0.0082,1.347734 l 0.537421,0 c -0.01773,-0.319511 -0.02918,-0.800364 0.0082,-1.347734 l -0.537422,0 z m 2.331641,0 c 0.07178,0.482203 0.05302,0.988589 0.03307,1.347734 l 0.537449,0 c 0.02196,-0.358378 0.02926,-0.839681 -0.04135,-1.347734 l -0.529166,0 z"
           style="color:#000000;fill:#081c2a;fill-opacity:1;fill-rule:nonzero;stroke:none;stroke-width:8;marker:none;visibility:visible;display:inline;overflow:visible;enable-background:accumulate" />
      </g>
      <g
         transform="matrix(0.93254664,0,0,0.95674538,-504.95723,-395.54522)"
         id="g9747">
        <path
           sodipodi:nodetypes="ccccccccccccc"
           inkscape:connector-curvature="0"
           style="color:#000000;fill:#9cc6e7;fill-opacity:1;fill-rule:nonzero;stroke:#081c2a;stroke-width:8.46947479;stroke-linecap:round;stroke-linejoin:round;stroke-miterlimit:4;stroke-opacity:1;stroke-dasharray:none;stroke-dashoffset:0;marker:none;visibility:visible;display:inline;overflow:visible;enable-background:accumulate"
           d="m 2683.5938,1503.5 -8.375,4.3125 0,3.4375 0,9.875 0,0.125 0.094,0 2.5625,3.4375 48.1499,0 1.2914,-0.3239 -0.136,-16.8299 -1.1554,-4.0337 -42.4311,0 z"
           transform="matrix(0.26458334,0,0,0.26458334,-123.02949,72.103469)"
           id="path9733" />
        <path
           style="color:#000000;fill:#7dbae2;fill-opacity:1;fill-rule:nonzero;stroke:none;stroke-width:8;marker:none;visibility:visible;display:inline;overflow:visible;enable-background:accumulate"
           d="m 584.78839,471.95113 0,2.61609 0.70433,0.93911 13.02152,0 0,-1.07327 0,-3.62229 -0.26004,-0.89238 -11.25222,0.89238 z"
           id="path9742"
           inkscape:connector-curvature="0"
           sodipodi:nodetypes="ccccccccc" />
        <path
           sodipodi:nodetypes="cccccc"
           inkscape:connector-curvature="0"
           id="path9735"
           d="m 584.78839,471.04556 0,3.5552 13.44213,0 0,-4.69556 -11.22854,0 z"
           style="color:#000000;fill:#e6f0f8;fill-opacity:1;fill-rule:nonzero;stroke:none;stroke-width:8;marker:none;visibility:visible;display:inline;overflow:visible;enable-background:accumulate" />
        <path
           sodipodi:nodetypes="cccccc"
           style="color:#000000;fill:#7dbae2;fill-opacity:1;fill-rule:nonzero;stroke:none;stroke-width:8;marker:none;visibility:visible;display:inline;overflow:visible;enable-background:accumulate"
           d="m 586.99793,469.90803 -2.20763,1.14102 0,0.13229 13.44249,0 0,-1.27331 z"
           id="path9737"
           inkscape:connector-curvature="0" />
      </g>
      <g
         id="g9765"
         transform="matrix(-0.93254664,0,0,0.95674538,622.88153,-395.54522)">
        <path
           id="path9767"
           transform="matrix(0.26458334,0,0,0.26458334,-123.02949,72.103469)"
           d="m 2683.5938,1503.5 -8.375,4.3125 0,3.4375 0,9.875 0,0.125 0.094,0 2.5625,3.4375 48.1499,0 0,-3.4375 0,-0.625 0,-13.6875 0,-3.4375 -42.4311,0 z"
           style="color:#000000;fill:#9cc6e7;fill-opacity:1;fill-rule:nonzero;stroke:#081c2a;stroke-width:8.46947479;stroke-linecap:round;stroke-linejoin:round;stroke-miterlimit:4;stroke-opacity:1;stroke-dasharray:none;stroke-dashoffset:0;marker:none;visibility:visible;display:inline;overflow:visible;enable-background:accumulate"
           inkscape:connector-curvature="0"
           sodipodi:nodetypes="cccccccccccccc" />
        <path
           sodipodi:nodetypes="ccccccccc"
           inkscape:connector-curvature="0"
           id="path9769"
           d="m 584.78839,471.95113 0,2.61609 0.70433,0.93911 13.02152,0 0,-1.07327 0,-3.62229 -0.26004,-0.89238 -11.25222,0.89238 z"
           style="color:#000000;fill:#7dbae2;fill-opacity:1;fill-rule:nonzero;stroke:none;stroke-width:8;marker:none;visibility:visible;display:inline;overflow:visible;enable-background:accumulate" />
        <path
           style="color:#000000;fill:#e6f0f8;fill-opacity:1;fill-rule:nonzero;stroke:none;stroke-width:8;marker:none;visibility:visible;display:inline;overflow:visible;enable-background:accumulate"
           d="m 584.78839,471.04556 0,3.5552 13.44213,0 0,-4.69556 -11.22854,0 z"
           id="path9771"
           inkscape:connector-curvature="0"
           sodipodi:nodetypes="cccccc" />
        <path
           inkscape:connector-curvature="0"
           id="path9774"
           d="m 586.99793,469.90803 -2.20763,1.14102 0,0.13229 13.44249,0 0,-1.27331 z"
           style="color:#000000;fill:#7dbae2;fill-opacity:1;fill-rule:nonzero;stroke:none;stroke-width:8;marker:none;visibility:visible;display:inline;overflow:visible;enable-background:accumulate"
           sodipodi:nodetypes="cccccc" />
      </g>
      <g
         transform="translate(-551.11344,-426.47448)"
         id="g9791">
        <path
           inkscape:connector-curvature="0"
           style="color:#000000;fill:#7dbae2;fill-opacity:1;fill-rule:nonzero;stroke:#081c2a;stroke-width:8;stroke-opacity:1;marker:none;visibility:visible;display:inline;overflow:visible;enable-background:accumulate"
           d="m 2712.6562,1550.2812 c -0.858,0 -1.5312,0.6732 -1.5312,1.5313 l 0,2.875 0,11.4375 0,2.875 c 0,0.8581 0.6732,1.5312 1.5312,1.5312 l 11.9688,0 c 0.8581,0 1.5312,-0.6731 1.5312,-1.5312 l 0,-2.875 0,-11.4375 0,-2.875 c 0,-0.8581 -0.6731,-1.5313 -1.5312,-1.5313 l -11.9688,0 z"
           transform="matrix(0.26458334,0,0,0.26458334,-123.02949,72.103469)"
           id="rect9780" />
        <rect
           ry="0.40981358"
           rx="0.40981358"
           y="483.03989"
           x="594.28516"
           height="4.6009073"
           width="3.9842908"
           id="rect9778"
           style="color:#000000;fill:#7dbae2;fill-opacity:1;fill-rule:nonzero;stroke:none;stroke-width:8;marker:none;visibility:visible;display:inline;overflow:visible;enable-background:accumulate" />
        <path
           inkscape:connector-curvature="0"
           style="color:#000000;fill:#c7e0f2;fill-opacity:1;fill-rule:nonzero;stroke:none;stroke-width:8;marker:none;visibility:visible;display:inline;overflow:visible;enable-background:accumulate"
           d="m 594.69497,482.28098 3.16466,0 c 0.22704,0 0.40982,0.18277 0.40982,0.40981 l 0,3.78128 c 0,0.22704 -0.18278,0.40981 -0.40982,0.40981 l -3.16466,0 c -0.22704,0 -0.40981,-0.18277 -0.40981,-0.40981 l 0,-3.78128 c 0,-0.22704 0.18277,-0.40981 0.40981,-0.40981 z"
           id="rect9776" />
        <path
           inkscape:connector-curvature="0"
           style="color:#000000;fill:#e6f0f8;fill-opacity:1;fill-rule:nonzero;stroke:none;stroke-width:8;marker:none;visibility:visible;display:inline;overflow:visible;enable-background:accumulate"
           d="m 2712.6562,1550.2812 c -0.8581,0 -1.5312,0.6732 -1.5312,1.5313 l 0,2 c 0,-0.8581 0.6731,-1.5625 1.5312,-1.5625 l 11.9688,0 c 0.8581,0 1.5312,0.7044 1.5312,1.5625 l 0,-2 c 0,-0.8581 -0.6731,-1.5313 -1.5312,-1.5313 l -11.9688,0 z"
           transform="matrix(0.26458334,0,0,0.26458334,-123.02949,72.103469)"
           id="path9786" />
      </g>
      <g
         transform="translate(-523.3419,-426.18989)"
         id="g9808">
        <path
           inkscape:connector-curvature="0"
           style="color:#000000;fill:#7dbae2;fill-opacity:1;fill-rule:nonzero;stroke:#081c2a;stroke-width:8;stroke-opacity:1;marker:none;visibility:visible;display:inline;overflow:visible;enable-background:accumulate"
           d="m 2712.6562,1550.2812 c -0.858,0 -1.5312,0.6732 -1.5312,1.5313 l 0,2.875 0,11.4375 0,2.875 c 0,0.8581 0.6732,1.5312 1.5312,1.5312 l 11.9688,0 c 0.8581,0 1.5312,-0.6731 1.5312,-1.5312 l 0,-2.875 0,-11.4375 0,-2.875 c 0,-0.8581 -0.6731,-1.5313 -1.5312,-1.5313 l -11.9688,0 z"
           transform="matrix(0.26458334,0,0,0.26458334,-123.02949,72.103469)"
           id="path9810" />
        <rect
           ry="0.40981358"
           rx="0.40981358"
           y="483.03989"
           x="594.28516"
           height="4.6009073"
           width="3.9842908"
           id="rect9812"
           style="color:#000000;fill:#7dbae2;fill-opacity:1;fill-rule:nonzero;stroke:none;stroke-width:8;marker:none;visibility:visible;display:inline;overflow:visible;enable-background:accumulate" />
        <path
           inkscape:connector-curvature="0"
           style="color:#000000;fill:#c7e0f2;fill-opacity:1;fill-rule:nonzero;stroke:none;stroke-width:8;marker:none;visibility:visible;display:inline;overflow:visible;enable-background:accumulate"
           d="m 594.69497,482.28098 3.16466,0 c 0.22704,0 0.40982,0.18277 0.40982,0.40981 l 0,3.78128 c 0,0.22704 -0.18278,0.40981 -0.40982,0.40981 l -3.16466,0 c -0.22704,0 -0.40981,-0.18277 -0.40981,-0.40981 l 0,-3.78128 c 0,-0.22704 0.18277,-0.40981 0.40981,-0.40981 z"
           id="path9814" />
        <path
           inkscape:connector-curvature="0"
           style="color:#000000;fill:#e6f0f8;fill-opacity:1;fill-rule:nonzero;stroke:none;stroke-width:8;marker:none;visibility:visible;display:inline;overflow:visible;enable-background:accumulate"
           d="m 2712.6562,1550.2812 c -0.8581,0 -1.5312,0.6732 -1.5312,1.5313 l 0,2 c 0,-0.8581 0.6731,-1.5625 1.5312,-1.5625 l 11.9688,0 c 0.8581,0 1.5312,0.7044 1.5312,1.5625 l 0,-2 c 0,-0.8581 -0.6731,-1.5313 -1.5312,-1.5313 l -11.9688,0 z"
           transform="matrix(0.26458334,0,0,0.26458334,-123.02949,72.103469)"
           id="path9817" />
      </g>
      <g
         id="g13485">
        <path
           sodipodi:nodetypes="sssssssss"
           inkscape:connector-curvature="0"
           id="path9841"
           d="m 70.14173,63.7678 -5.180595,0 c -0.05786,0 -0.104457,0.04657 -0.104457,0.104431 l 0,1.133819 c 0,0.05786 0.04659,0.104431 0.104457,0.104431 l 5.180595,0 c 0.05786,0 0.104431,-0.04657 0.104431,-0.104431 l 0,-1.133819 c 0,-0.05786 -0.04657,-0.104431 -0.104431,-0.104431 z"
           style="color:#000000;fill:#e6f0f8;fill-opacity:1;fill-rule:nonzero;stroke:#081c2a;stroke-width:2.11666679;stroke-linejoin:round;stroke-opacity:1;marker:none;visibility:visible;display:inline;overflow:visible;enable-background:accumulate" />
        <path
           sodipodi:nodetypes="sssssssss"
           inkscape:connector-curvature="0"
           id="path9843"
           d="m 70.036822,63.7678 -4.970806,0 c -0.115967,0 -0.209338,0.09337 -0.209338,0.209312 l 0,0.924031 c 0,0.115967 0.09337,0.209338 0.209338,0.209338 l 4.970806,0 c 0.115967,0 0.209339,-0.09337 0.209339,-0.209338 l 0,-0.924031 c 0,-0.115941 -0.09337,-0.209312 -0.209339,-0.209312 z"
           style="color:#000000;fill:#7dbae2;fill-opacity:1;fill-rule:nonzero;stroke:none;stroke-width:8;marker:none;visibility:visible;display:inline;overflow:visible;enable-background:accumulate" />
        <path
           inkscape:connector-curvature="0"
           style="color:#000000;fill:#c7e0f2;fill-opacity:1;fill-rule:nonzero;stroke:none;stroke-width:8;marker:none;visibility:visible;display:inline;overflow:visible;enable-background:accumulate"
           d="m 70.03288,63.765075 c 0.115967,0 0.214948,0.09903 0.214948,0.215 l 0,0.363802 c 0,-0.115967 -0.09898,-0.206719 -0.214948,-0.206719 l -4.969219,0 c 0,0 -0.206719,0.09075 -0.206719,0.206719 l 0,-0.363802 c 0,-0.115967 0.09075,-0.215 0.206719,-0.215 l 4.969219,0 z"
           id="path9845" />
        <path
           inkscape:connector-curvature="0"
           style="color:#000000;fill:#081c2a;fill-opacity:1;fill-rule:nonzero;stroke:none;stroke-width:8;marker:none;visibility:visible;display:inline;overflow:visible;enable-background:accumulate"
           d="m 68.85051,63.765075 c 0.03548,0.544036 0.02567,1.017508 0.0082,1.347734 l -0.537421,0 c 0.01773,-0.319511 0.02918,-0.800364 -0.0082,-1.347734 l 0.537422,0 z m -2.331641,0 c -0.07178,0.482203 -0.05302,0.988589 -0.03307,1.347734 l -0.537449,0 c -0.02196,-0.358378 -0.02926,-0.839681 0.04136,-1.347734 l 0.529166,0 z"
           id="path9847" />
      </g>
    </g>
  </g>
</svg>
