<?xml version="1.0" encoding="UTF-8" standalone="no"?>
<!-- Created with Inkscape (http://www.inkscape.org/) -->

<svg
   xmlns:dc="http://purl.org/dc/elements/1.1/"
   xmlns:cc="http://creativecommons.org/ns#"
   xmlns:rdf="http://www.w3.org/1999/02/22-rdf-syntax-ns#"
   xmlns:svg="http://www.w3.org/2000/svg"
   xmlns="http://www.w3.org/2000/svg"
   xmlns:sodipodi="http://sodipodi.sourceforge.net/DTD/sodipodi-0.dtd"
   xmlns:inkscape="http://www.inkscape.org/namespaces/inkscape"
   width="57.810394"
   height="57.739578"
   viewBox="0 0 15.295665 15.27693"
   version="1.1"
   id="svg23489"
   inkscape:version="0.48.5 r10040"
   sodipodi:docname="floor_spike_down.svg">
  <defs
     id="defs23483" />
  <sodipodi:namedview
     id="base"
     pagecolor="#7d848b"
     bordercolor="#666666"
     borderopacity="1.0"
     inkscape:pageopacity="0"
     inkscape:pageshadow="2"
     inkscape:zoom="2.0757513"
     inkscape:cx="12.641506"
     inkscape:cy="-3.2918274"
     inkscape:document-units="px"
     inkscape:current-layer="layer1"
     showgrid="false"
     inkscape:pagecheckerboard="false"
     showborder="true"
     units="px"
     inkscape:window-width="1920"
     inkscape:window-height="1017"
     inkscape:window-x="-8"
     inkscape:window-y="-8"
     inkscape:window-maximized="1"
     inkscape:showpageshadow="false"
     guidetolerance="28"
     fit-margin-top="0"
     fit-margin-left="0"
     fit-margin-bottom="0"
     fit-margin-right="0">
    <inkscape:grid
       type="xygrid"
       id="grid24034"
       spacingx="1px"
       spacingy="1px"
       empspacing="8"
       visible="true"
       enabled="true"
       snapvisiblegridlinesonly="true"
       originx="434.38516px"
       originy="-390.84193px" />
  </sodipodi:namedview>
  <metadata
     id="metadata23486">
    <rdf:RDF>
      <cc:Work
         rdf:about="">
        <dc:format>image/svg+xml</dc:format>
        <dc:type
           rdf:resource="http://purl.org/dc/dcmitype/StillImage" />
        <dc:title></dc:title>
        <cc:license
           rdf:resource="" />
        <dc:creator>
          <cc:Agent>
            <dc:title>Robert Brooks</dc:title>
          </cc:Agent>
        </dc:creator>
      </cc:Work>
    </rdf:RDF>
  </metadata>
  <g
     inkscape:label="Layer 1"
     inkscape:groupmode="layer"
     id="layer1"
     transform="translate(114.93105,-178.31279)">
    <g
       id="g41241"
       transform="translate(-633.30832,-146.47692)">
      <g
         transform="translate(184.70311,-193.70545)"
         id="g9161">
        <g
           id="g9139"
           transform="translate(11.90544,0)">
          <g
             id="g9141"
             transform="matrix(0.93520486,0,0,0.93520486,15.622323,34.321395)">
            <path
               sodipodi:nodetypes="sssss"
               inkscape:connector-curvature="0"
               id="path9143"
               d="m 340.1302,528.02383 c 0,2.53772 -2.05721,3.21939 -4.59492,3.21939 -2.53769,0 -4.5949,-0.68167 -4.5949,-3.21939 0,-2.53769 2.05721,-4.5949 4.5949,-4.5949 2.53771,0 4.59492,2.05721 4.59492,4.5949 z"
               style="color:#000000;fill:none;stroke:#081c2a;stroke-width:2.26331878;stroke-opacity:1;marker:none;visibility:visible;display:inline;overflow:visible;enable-background:accumulate" />
            <path
               inkscape:connector-curvature="0"
               id="path9145"
               d="m 340.1302,528.02383 c 0,2.53771 -2.05721,4.59492 -4.59493,4.59492 -2.53769,0 -4.5949,-2.05721 -4.5949,-4.59492 0,-2.53769 2.05721,-4.5949 4.5949,-4.5949 2.53772,0 4.59493,2.05721 4.59493,4.5949 z"
               style="color:#000000;fill:#afd9f7;fill-opacity:1;fill-rule:nonzero;stroke:none;stroke-width:8;marker:none;visibility:visible;display:inline;overflow:visible;enable-background:accumulate" />
            <path
               id="path9147"
               transform="matrix(0.26458334,0,0,0.26458334,-123.02949,72.103469)"
               d="m 1749.9062,1718.6562 c -0.5622,1.4473 -1.204,3.0559 -2.0312,4.9688 -5.3688,12.4153 -27.6579,10.5537 -31.9688,-2.375 -0.068,0.6255 -0.125,1.2626 -0.125,1.9062 0,9.5914 7.7838,17.375 17.375,17.375 9.5914,0 17.375,-7.7836 17.375,-17.375 0,-1.5623 -0.2381,-3.0597 -0.625,-4.5 z"
               style="opacity:0.82743363;color:#000000;fill:#4dabed;fill-opacity:1;fill-rule:nonzero;stroke:none;stroke-width:5;marker:none;visibility:visible;display:inline;overflow:visible;enable-background:accumulate"
               inkscape:connector-curvature="0" />
            <path
               sodipodi:nodetypes="sssss"
               style="color:#000000;fill:#ffffff;fill-opacity:1;fill-rule:nonzero;stroke:none;stroke-width:8;marker:none;visibility:visible;display:inline;overflow:visible;enable-background:accumulate"
               d="m 338.68351,527.81039 c 0,1.73873 -1.4095,3.14824 -3.14823,3.14824 -1.73872,0 -3.14822,-1.40951 -3.14822,-3.14824 0,-1.73872 1.4095,-3.14823 3.14822,-3.14823 1.73873,0 3.14823,1.40951 3.14823,3.14823 z"
               id="path9149"
               inkscape:connector-curvature="0" />
            <path
               style="color:#000000;fill:#081c2a;fill-opacity:1;fill-rule:nonzero;stroke:none;stroke-width:8;marker:none;visibility:visible;display:inline;overflow:visible;enable-background:accumulate"
               d="m 338.47007,527.59695 c 0,1.62084 -1.31394,2.93479 -2.93479,2.93479 -1.62084,0 -2.93478,-1.31395 -2.93478,-2.93479 0,-1.62084 1.31394,-2.93479 2.93478,-2.93479 1.62085,0 2.93479,1.31395 2.93479,2.93479 z"
               id="path9151"
               inkscape:connector-curvature="0" />
            <path
               id="path9153"
               transform="matrix(0.26458334,0,0,0.26458334,-123.02949,72.103469)"
               d="m 1733.1562,1705.8125 c -9.5912,0 -17.375,7.7525 -17.375,17.3437 0,0.2418 0.022,0.4794 0.031,0.7188 0.3784,-9.2566 7.9942,-16.6562 17.3437,-16.6562 9.3497,0 16.9654,7.3996 17.3438,16.6562 0.01,-0.2394 0.031,-0.477 0.031,-0.7188 0,-9.5912 -7.7836,-17.3437 -17.375,-17.3437 z"
               style="color:#000000;fill:#bfe2fb;fill-opacity:1;fill-rule:nonzero;stroke:none;stroke-width:8;marker:none;visibility:visible;display:inline;overflow:visible;enable-background:accumulate"
               inkscape:connector-curvature="0" />
          </g>
        </g>
      </g>
      <path
         sodipodi:nodetypes="cccc"
         transform="matrix(0.26458334,0,0,0.26458334,-123.02949,72.103469)"
         inkscape:connector-curvature="0"
         id="path41232"
         d="m 2445.3534,990.21644 c -0.325,-2.27445 7.7981,-22.74445 7.7981,-22.74445 l 7.4732,21.76968 c -0.9748,10.72241 -15.9211,7.14826 -15.2713,0.97477 z"
         style="color:#000000;fill:#72bdf1;fill-opacity:1;fill-rule:nonzero;stroke:#071e2c;stroke-width:8;stroke-linecap:round;stroke-linejoin:round;stroke-miterlimit:4;stroke-opacity:1;stroke-dasharray:none;stroke-dashoffset:0;marker:none;visibility:visible;display:inline;overflow:visible;enable-background:accumulate" />
      <path
         style="color:#000000;fill:#dbeefb;fill-opacity:1;fill-rule:nonzero;stroke:none;stroke-width:8;marker:none;visibility:visible;display:inline;overflow:visible;enable-background:accumulate"
         d="m 2445.3534,990.21644 c -0.325,-2.27445 7.7981,-22.74445 7.7981,-22.74445 l 7.4732,21.76968 c 0,10.59111 -15.9211,7.14826 -15.2713,0.97477 z"
         id="path41234"
         inkscape:connector-curvature="0"
         transform="matrix(0.26458334,0,0,0.26458334,-123.02949,72.103469)"
         sodipodi:nodetypes="cccc" />
      <path
         sodipodi:nodetypes="cccccc"
         inkscape:connector-curvature="0"
         id="path41236"
         transform="matrix(0.26458334,0,0,0.26458334,-123.02949,72.103469)"
         d="m 2454.744,972.14383 c 0.7557,5.9876 1.8103,15.79035 0.6874,17.25 -1.4164,1.84135 -8.1223,1.83272 -9.5,-1.96875 -0.3932,1.36562 -0.621,2.37133 -0.5624,2.78125 -0.6499,6.17349 15.25,9.62235 15.25,-0.96875 z"
         style="color:#000000;fill:#5eb3ef;fill-opacity:1;fill-rule:nonzero;stroke:none;stroke-width:8;marker:none;visibility:visible;display:inline;overflow:visible;enable-background:accumulate" />
    </g>
  </g>
</svg>
