<?xml version="1.0" encoding="UTF-8" standalone="no"?>
<!-- Created with Inkscape (http://www.inkscape.org/) -->

<svg
   xmlns:dc="http://purl.org/dc/elements/1.1/"
   xmlns:cc="http://creativecommons.org/ns#"
   xmlns:rdf="http://www.w3.org/1999/02/22-rdf-syntax-ns#"
   xmlns:svg="http://www.w3.org/2000/svg"
   xmlns="http://www.w3.org/2000/svg"
   xmlns:sodipodi="http://sodipodi.sourceforge.net/DTD/sodipodi-0.dtd"
   xmlns:inkscape="http://www.inkscape.org/namespaces/inkscape"
   width="108.48975"
   height="50.526966"
   viewBox="0 0 28.70458 13.368593"
   version="1.1"
   id="svg23489"
   inkscape:version="0.48.5 r10040"
   sodipodi:docname="plug_connector_female.svg">
  <defs
     id="defs23483" />
  <sodipodi:namedview
     id="base"
     pagecolor="#7d848b"
     bordercolor="#666666"
     borderopacity="1.0"
     inkscape:pageopacity="0"
     inkscape:pageshadow="2"
     inkscape:zoom="0.51893782"
     inkscape:cx="196.86238"
     inkscape:cy="118.40669"
     inkscape:document-units="px"
     inkscape:current-layer="layer1"
     showgrid="true"
     inkscape:pagecheckerboard="false"
     showborder="true"
     units="px"
     inkscape:window-width="1920"
     inkscape:window-height="1017"
     inkscape:window-x="-8"
     inkscape:window-y="-8"
     inkscape:window-maximized="1"
     inkscape:showpageshadow="false"
     guidetolerance="28"
     fit-margin-top="10"
     fit-margin-left="10"
     fit-margin-right="10"
     fit-margin-bottom="10">
    <inkscape:grid
       type="xygrid"
       id="grid24034"
       spacingx="1px"
       spacingy="1px"
       empspacing="8"
       visible="true"
       enabled="true"
       snapvisiblegridlinesonly="true"
       originx="-223.37333px"
       originy="-786.77377px" />
  </sodipodi:namedview>
  <metadata
     id="metadata23486">
    <rdf:RDF>
      <cc:Work
         rdf:about="">
        <dc:format>image/svg+xml</dc:format>
        <dc:type
           rdf:resource="http://purl.org/dc/dcmitype/StillImage" />
        <dc:title></dc:title>
        <cc:license
           rdf:resource="" />
        <dc:creator>
          <cc:Agent>
            <dc:title>Robert Brooks</dc:title>
          </cc:Agent>
        </dc:creator>
      </cc:Work>
    </rdf:RDF>
  </metadata>
  <g
     inkscape:label="Layer 1"
     inkscape:groupmode="layer"
     id="layer1"
     transform="translate(-59.100861,-75.464162)">
    <g
       id="g7874"
       transform="translate(-628.90678,-540.05899)">
      <g
         transform="translate(0.10467996,0.05233998)"
         id="g7715">
        <g
           id="g7615"
           transform="matrix(0.00378598,0.45353811,-0.45353811,0.00378598,913.28368,375.48989)">
          <path
             inkscape:connector-curvature="0"
             style="color:#000000;fill:#ffd326;fill-opacity:1;fill-rule:nonzero;stroke:#081c2a;stroke-width:4.66684723;stroke-linejoin:round;stroke-miterlimit:4;stroke-opacity:1;marker:none;visibility:visible;display:inline;overflow:visible;enable-background:accumulate"
             d="m 536.69177,465.11404 c 0.58825,0 1.06183,0.47358 1.06183,1.06183 l 0,6.53432 c 0,0.58825 -0.47358,1.06183 -1.06183,1.06183 -0.58825,0 -1.06183,-0.47358 -1.06183,-1.06183 l 0,-6.53432 c 0,-0.58825 0.47358,-1.06183 1.06183,-1.06183 z"
             id="path7617" />
          <path
             inkscape:connector-curvature="0"
             style="color:#000000;fill:#ffd326;fill-opacity:1;fill-rule:nonzero;stroke:none;stroke-width:2;marker:none;visibility:visible;display:inline;overflow:visible;enable-background:accumulate"
             d="m 536.69177,465.11404 c 0.58825,0 1.06183,0.47358 1.06183,1.06183 l 0,6.53432 c 0,0.58825 -0.47358,1.06183 -1.06183,1.06183 -0.58825,0 -1.06183,-0.47358 -1.06183,-1.06183 l 0,-6.53432 c 0,-0.58825 0.47358,-1.06183 1.06183,-1.06183 z"
             id="path7619" />
          <path
             inkscape:connector-curvature="0"
             style="color:#000000;fill:#ffff00;fill-opacity:1;fill-rule:nonzero;stroke:none;stroke-width:2;marker:none;visibility:visible;display:inline;overflow:visible;enable-background:accumulate"
             d="m 3130.2812,2072.0625 -11.1874,0.094 c -0.6148,0.01 -1.1434,0.3146 -1.4688,0.7813 0,0.01 0,0.025 0,0.031 0.068,0.1777 0.125,0.2812 0.125,0.2812 0,0 12.0576,-0.302 12.75,0.094 0.6803,0.3887 0.507,1.9148 -0.25,2.3437 l 0.062,0 c 1.0084,-0.01 1.8209,-0.8354 1.8125,-1.8437 -0.01,-1.0084 -0.8354,-1.7897 -1.8438,-1.7813 z"
             transform="matrix(0.00486948,-0.58333555,0.58333555,0.00486948,-688.31273,2282.0921)"
             id="path7621" />
        </g>
        <g
           transform="matrix(0.00378598,0.45353811,-0.45353811,0.00378598,913.28368,378.61372)"
           id="g7623">
          <path
             inkscape:connector-curvature="0"
             style="color:#000000;fill:#ffd326;fill-opacity:1;fill-rule:nonzero;stroke:#081c2a;stroke-width:4.66684723;stroke-linejoin:round;stroke-miterlimit:4;stroke-opacity:1;marker:none;visibility:visible;display:inline;overflow:visible;enable-background:accumulate"
             d="m 536.69177,465.11404 c 0.58825,0 1.06183,0.47358 1.06183,1.06183 l 0,6.53432 c 0,0.58825 -0.47358,1.06183 -1.06183,1.06183 -0.58825,0 -1.06183,-0.47358 -1.06183,-1.06183 l 0,-6.53432 c 0,-0.58825 0.47358,-1.06183 1.06183,-1.06183 z"
             id="path7625" />
          <path
             inkscape:connector-curvature="0"
             style="color:#000000;fill:#ffd326;fill-opacity:1;fill-rule:nonzero;stroke:none;stroke-width:2;marker:none;visibility:visible;display:inline;overflow:visible;enable-background:accumulate"
             d="m 536.69177,465.11404 c 0.58825,0 1.06183,0.47358 1.06183,1.06183 l 0,6.53432 c 0,0.58825 -0.47358,1.06183 -1.06183,1.06183 -0.58825,0 -1.06183,-0.47358 -1.06183,-1.06183 l 0,-6.53432 c 0,-0.58825 0.47358,-1.06183 1.06183,-1.06183 z"
             id="path7627" />
          <path
             inkscape:connector-curvature="0"
             style="color:#000000;fill:#ffff00;fill-opacity:1;fill-rule:nonzero;stroke:none;stroke-width:2;marker:none;visibility:visible;display:inline;overflow:visible;enable-background:accumulate"
             d="m 3130.2812,2083.8438 -11.1874,0.094 c -0.5968,0.01 -1.1097,0.3061 -1.4376,0.75 0.3304,0.1963 0.5938,0.3437 0.5938,0.3437 l 11.6562,0 c 0,0 0.8907,-0.5877 1.1876,1.0938 0.1003,0.5689 -0.1381,0.9898 -0.4688,1.3438 0.8592,-0.1529 1.5075,-0.9094 1.5,-1.8126 -0.01,-1.0083 -0.8354,-1.8209 -1.8438,-1.8124 z"
             transform="matrix(0.00486948,-0.58333555,0.58333555,0.00486948,-695.19995,2282.0346)"
             id="path7629" />
        </g>
        <g
           id="g7562"
           transform="matrix(1.0420386,0,0,1.0420386,-29.331516,-26.122591)">
          <path
             sodipodi:nodetypes="ccccccccccc"
             inkscape:connector-curvature="0"
             id="path20769"
             d="m 701.40394,619.2559 -0.0744,0.008 -2.66237,0 -0.0413,0 0,0.008 -6.60633,1.04177 c -0.0968,0.3152 -0.32782,3.44938 0.0331,3.67938 l 6.61459,0.95911 2.86328,0.0414 0.0242,-5.73818 z"
             style="color:#000000;fill:#75fff2;fill-opacity:1;fill-rule:nonzero;stroke:#081c2a;stroke-width:2.03127503;stroke-linecap:round;stroke-linejoin:round;stroke-miterlimit:4;stroke-opacity:1;stroke-dasharray:none;stroke-dashoffset:0;marker:none;visibility:visible;display:inline;overflow:visible;enable-background:accumulate" />
          <path
             style="color:#000000;fill:#a0d9ff;fill-opacity:1;fill-rule:nonzero;stroke:none;stroke-width:8;marker:none;visibility:visible;display:inline;overflow:visible;enable-background:accumulate"
             d="m 698.66303,619.26759 -6.64372,1.04342 c 0.002,-0.2313 -0.43182,2.41161 0.0308,3.68435 l 6.62831,0.95673 c -0.15751,-0.0601 0.0603,-5.87007 -0.0153,-5.6845 z"
             id="path20771"
             inkscape:connector-curvature="0"
             sodipodi:nodetypes="cccccc" />
          <path
             sodipodi:nodetypes="ccccc"
             inkscape:connector-curvature="0"
             id="path7516"
             d="m 698.62854,624.95965 3.00311,0.037 c 0.34154,-2.36757 0.0157,-3.84533 0,-5.73656 0,0 -2.29604,0 -3.00311,0 0.0903,-0.26929 -0.16464,5.56545 0,5.69956 z"
             style="color:#000000;fill:#d1edff;fill-opacity:1;fill-rule:nonzero;stroke:none;stroke-width:5;marker:none;visibility:visible;display:inline;overflow:visible;enable-background:accumulate" />
          <path
             style="opacity:0.5575221;color:#000000;fill:#3f9bdb;fill-opacity:1;fill-rule:nonzero;stroke:none;stroke-width:8;marker:none;visibility:visible;display:inline;overflow:visible;enable-background:accumulate"
             d="m 3106.9375,2067.3125 -26.1563,4.0937 c 0.046,0.023 0.018,0.072 -0.062,0.1563 -0.1008,0.4925 -0.2871,1.8479 -0.4376,3.5313 5.0276,-0.3924 22.8801,-1.9359 26.6563,-2.2813 0.056,-3.075 0.085,-5.5465 0,-5.5 z m -26.625,16.0937 c 0.1319,0.9131 0.3269,1.766 0.5937,2.5 l 26.0626,3.75 0.031,0 c -0.1368,-0.1121 -0.2016,-1.4398 -0.2188,-3.3124 l -26.4687,-2.9376 z"
             transform="matrix(0.25390934,0,0,0.25390934,-90.219324,94.363817)"
             id="path20779"
             inkscape:connector-curvature="0" />
          <path
             id="path7532"
             transform="matrix(0.25390934,0,0,0.25390934,-90.01841,94.213132)"
             d="m 3106.0625,2067.875 c 0,0.021 0,0.057 0,0.094 0.018,0.1794 0.032,0.6757 0.031,1.1874 5e-4,0.2298 0,0.2424 0,0.5313 0,0.3914 -0.023,0.6595 -0.031,1.1563 -0.012,0.7979 -0.01,1.5657 -0.031,2.5312 1.4315,0.016 6.5836,0.033 11.8126,0.094 l 0,-5.5938 -11.7813,0 z m 11.7813,19.0938 c -5.452,0.01 -10.9739,0.029 -12.0313,0.031 0.01,0.9156 0.028,1.728 0.062,2.3125 0.017,0.2923 0.036,0.5145 0.062,0.6875 0.026,0.173 0.058,0.2831 0.094,0.3125 l 11.8126,0.062 0,-3.4062 z"
             style="color:#000000;fill:#95d4ff;fill-opacity:1;fill-rule:nonzero;stroke:none;stroke-width:5;marker:none;visibility:visible;display:inline;overflow:visible;enable-background:accumulate"
             inkscape:connector-curvature="0" />
          <path
             inkscape:connector-curvature="0"
             id="path7555"
             transform="matrix(0.26458334,0,0,0.26458334,-123.02949,72.103469)"
             d="m 3105.3463,2076.1242 c -0.7667,0.07 -0.9645,0.1607 -2.2213,0.2812 -2.5136,0.2412 -5.8172,0.5848 -9.0938,0.9063 -6.3336,0.6214 -13.7949,1.3992 -14.2073,1.4398 0.01,0.3402 0,0.6606 0,1 0.3282,-0.032 7.9214,-0.8138 14.3011,-1.4398 3.2762,-0.3213 6.5815,-0.6652 9.0938,-0.9063 1.2561,-0.1205 1.4571,-0.2109 2.2212,-0.2812 0.3821,-0.034 0.2896,-1.035 -0.094,-1 z"
             style="font-size:medium;font-style:normal;font-variant:normal;font-weight:normal;font-stretch:normal;text-indent:0;text-align:start;text-decoration:none;line-height:normal;letter-spacing:normal;word-spacing:normal;text-transform:none;direction:ltr;block-progression:tb;writing-mode:lr-tb;text-anchor:start;baseline-shift:baseline;color:#000000;fill:#7bbfee;fill-opacity:1;fill-rule:nonzero;stroke:none;stroke-width:1;marker:none;visibility:visible;display:inline;overflow:visible;enable-background:accumulate;font-family:Sans;-inkscape-font-specification:Sans"
             sodipodi:nodetypes="ccsccccccc" />
          <path
             sodipodi:nodetypes="cccccc"
             inkscape:connector-curvature="0"
             id="path7546"
             transform="matrix(0.25390934,0,0,0.25390934,-90.01841,94.213132)"
             d="m 3111.8598,2075.1562 c -2.6071,-4e-4 -5.3103,0.02 -5.625,0.125 0.036,1.5613 0.1916,2.2578 0.062,5.1563 l 10.6563,0.031 0,-5.2813 c -0.031,-3e-4 -2.5026,-0.031 -5.0938,-0.031 z"
             style="color:#000000;fill:#ffffff;fill-opacity:1;fill-rule:nonzero;stroke:none;stroke-width:5;marker:none;visibility:visible;display:inline;overflow:visible;enable-background:accumulate" />
          <path
             id="path7548"
             transform="matrix(0.25390934,0,0,0.25390934,-90.01841,94.213132)"
             d="m 3105.9375,2076.4375 c -0.01,0.3733 0.01,0.6509 0,1.0313 l 7.1875,0 0,5.9687 0,0.5 0.5312,0 4.1876,0 0,-1.0313 -3.6563,0 0,-5.9687 0,-0.5 -0.5313,0 -7.7187,0 z"
             style="font-size:medium;font-style:normal;font-variant:normal;font-weight:normal;font-stretch:normal;text-indent:0;text-align:start;text-decoration:none;line-height:normal;letter-spacing:normal;word-spacing:normal;text-transform:none;direction:ltr;block-progression:tb;writing-mode:lr-tb;text-anchor:start;baseline-shift:baseline;color:#000000;fill:#6ab6eb;fill-opacity:1;fill-rule:nonzero;stroke:none;stroke-width:1;marker:none;visibility:visible;display:inline;overflow:visible;enable-background:accumulate;font-family:Sans;-inkscape-font-specification:Sans"
             inkscape:connector-curvature="0" />
        </g>
      </g>
      <g
         id="g7839"
         transform="matrix(-1.0420386,0,0,1.0420386,1433.9467,-26.070251)">
        <path
           sodipodi:nodetypes="cccccccccscc"
           inkscape:connector-curvature="0"
           id="path7841"
           d="m 701.40394,619.2559 -0.0744,0.008 -2.66237,0 -0.0413,0 0,0.008 -6.60633,1.04177 c -0.0968,0.3152 -0.32782,3.44938 0.0331,3.67938 l 6.61459,0.95911 2.86328,0.0414 c 0.11636,-0.1629 0.17238,-1.27184 0.19472,-2.47766 0.0259,-1.39674 -0.002,-2.92349 -0.17052,-3.26052 z"
           style="color:#000000;fill:#75fff2;fill-opacity:1;fill-rule:nonzero;stroke:#081c2a;stroke-width:2.03127503;stroke-linecap:round;stroke-linejoin:round;stroke-miterlimit:4;stroke-opacity:1;stroke-dasharray:none;stroke-dashoffset:0;marker:none;visibility:visible;display:inline;overflow:visible;enable-background:accumulate" />
        <path
           style="color:#000000;fill:#a0d9ff;fill-opacity:1;fill-rule:nonzero;stroke:none;stroke-width:8;marker:none;visibility:visible;display:inline;overflow:visible;enable-background:accumulate"
           d="m 698.66303,619.26759 -6.64372,1.04342 c 0.002,-0.2313 -0.43182,2.41161 0.0308,3.68435 l 6.62831,0.95673 c -0.15751,-0.0601 0.0603,-5.87007 -0.0153,-5.6845 z"
           id="path7843"
           inkscape:connector-curvature="0"
           sodipodi:nodetypes="cccccc" />
        <path
           sodipodi:nodetypes="ccccc"
           inkscape:connector-curvature="0"
           id="path7845"
           d="m 698.62854,624.95965 3.00311,0.037 c 0.1758,-0.1758 0.25114,-5.76167 0,-5.73656 0,0 -2.29604,0 -3.00311,0 0.0903,-0.26929 -0.16464,5.56545 0,5.69956 z"
           style="color:#000000;fill:#d1edff;fill-opacity:1;fill-rule:nonzero;stroke:none;stroke-width:5;marker:none;visibility:visible;display:inline;overflow:visible;enable-background:accumulate" />
        <path
           style="opacity:0.5575221;color:#000000;fill:#3f9bdb;fill-opacity:1;fill-rule:nonzero;stroke:none;stroke-width:8;marker:none;visibility:visible;display:inline;overflow:visible;enable-background:accumulate"
           d="m 3106.9375,2067.3125 -26.1563,4.0937 c 0.046,0.023 0.018,0.072 -0.062,0.1563 -0.1008,0.4925 -0.2871,1.8479 -0.4376,3.5313 5.0276,-0.3924 22.8801,-1.9359 26.6563,-2.2813 0.056,-3.075 0.085,-5.5465 0,-5.5 z m -26.625,16.0937 c 0.1319,0.9131 0.3269,1.766 0.5937,2.5 l 26.0626,3.75 0.031,0 c -0.1368,-0.1121 -0.2016,-1.4398 -0.2188,-3.3124 l -26.4687,-2.9376 z"
           transform="matrix(0.25390934,0,0,0.25390934,-90.219324,94.363817)"
           id="path7847"
           inkscape:connector-curvature="0" />
        <path
           id="path7849"
           transform="matrix(0.25390934,0,0,0.25390934,-90.01841,94.213132)"
           d="m 3106.0625,2067.875 c 0,0.021 0,0.057 0,0.094 0.018,0.1794 0.032,0.6757 0.031,1.1874 5e-4,0.2298 0,0.2424 0,0.5313 0,0.3914 -0.023,0.6595 -0.031,1.1563 -0.012,0.7979 -0.01,1.5657 -0.031,2.5312 1.4315,0.016 6.5836,0.033 11.8126,0.094 l 0,-5.5938 -11.7813,0 z m 11.7813,19.0938 c -5.452,0.01 -10.9739,0.029 -12.0313,0.031 0.01,0.9156 0.028,1.728 0.062,2.3125 0.017,0.2923 0.036,0.5145 0.062,0.6875 0.026,0.173 0.058,0.2831 0.094,0.3125 l 11.8126,0.062 0,-3.4062 z"
           style="color:#000000;fill:#95d4ff;fill-opacity:1;fill-rule:nonzero;stroke:none;stroke-width:5;marker:none;visibility:visible;display:inline;overflow:visible;enable-background:accumulate"
           inkscape:connector-curvature="0" />
        <path
           inkscape:connector-curvature="0"
           id="path7851"
           transform="matrix(0.26458334,0,0,0.26458334,-123.02949,72.103469)"
           d="m 3105.3463,2076.1242 c -0.7667,0.07 -0.9645,0.1607 -2.2213,0.2812 -2.5136,0.2412 -5.8172,0.5848 -9.0938,0.9063 -6.3336,0.6214 -13.7949,1.3992 -14.2073,1.4398 0.01,0.3402 0,0.6606 0,1 0.3282,-0.032 7.9214,-0.8138 14.3011,-1.4398 3.2762,-0.3213 6.5815,-0.6652 9.0938,-0.9063 1.2561,-0.1205 1.4571,-0.2109 2.2212,-0.2812 0.3821,-0.034 0.2896,-1.035 -0.094,-1 z"
           style="font-size:medium;font-style:normal;font-variant:normal;font-weight:normal;font-stretch:normal;text-indent:0;text-align:start;text-decoration:none;line-height:normal;letter-spacing:normal;word-spacing:normal;text-transform:none;direction:ltr;block-progression:tb;writing-mode:lr-tb;text-anchor:start;baseline-shift:baseline;color:#000000;fill:#7bbfee;fill-opacity:1;fill-rule:nonzero;stroke:none;stroke-width:1;marker:none;visibility:visible;display:inline;overflow:visible;enable-background:accumulate;font-family:Sans;-inkscape-font-specification:Sans"
           sodipodi:nodetypes="ccsccccccc" />
        <path
           sodipodi:nodetypes="cccccc"
           inkscape:connector-curvature="0"
           id="path7853"
           transform="matrix(0.25390934,0,0,0.25390934,-90.01841,94.213132)"
           d="m 3111.8598,2075.1562 c -2.6071,-4e-4 -5.3103,0.02 -5.625,0.125 0.036,1.5613 0.1916,2.2578 0.062,5.1563 l 10.6563,0.031 0,-5.2813 c -0.031,-3e-4 -2.5026,-0.031 -5.0938,-0.031 z"
           style="color:#000000;fill:#ffffff;fill-opacity:1;fill-rule:nonzero;stroke:none;stroke-width:5;marker:none;visibility:visible;display:inline;overflow:visible;enable-background:accumulate" />
        <path
           id="path7855"
           transform="matrix(0.25390934,0,0,0.25390934,-90.01841,94.213132)"
           d="m 3105.9375,2076.4375 c -0.01,0.3733 0.01,0.6509 0,1.0313 l 7.1875,0 0,5.9687 0,0.5 0.5312,0 4.1876,0 0,-1.0313 -3.6563,0 0,-5.9687 0,-0.5 -0.5313,0 -7.7187,0 z"
           style="font-size:medium;font-style:normal;font-variant:normal;font-weight:normal;font-stretch:normal;text-indent:0;text-align:start;text-decoration:none;line-height:normal;letter-spacing:normal;word-spacing:normal;text-transform:none;direction:ltr;block-progression:tb;writing-mode:lr-tb;text-anchor:start;baseline-shift:baseline;color:#000000;fill:#6ab6eb;fill-opacity:1;fill-rule:nonzero;stroke:none;stroke-width:1;marker:none;visibility:visible;display:inline;overflow:visible;enable-background:accumulate;font-family:Sans;-inkscape-font-specification:Sans"
           inkscape:connector-curvature="0" />
      </g>
    </g>
  </g>
</svg>
