<?xml version="1.0" encoding="UTF-8" standalone="no"?>
<!-- Created with Inkscape (http://www.inkscape.org/) -->

<svg
   xmlns:dc="http://purl.org/dc/elements/1.1/"
   xmlns:cc="http://creativecommons.org/ns#"
   xmlns:rdf="http://www.w3.org/1999/02/22-rdf-syntax-ns#"
   xmlns:svg="http://www.w3.org/2000/svg"
   xmlns="http://www.w3.org/2000/svg"
   xmlns:sodipodi="http://sodipodi.sourceforge.net/DTD/sodipodi-0.dtd"
   xmlns:inkscape="http://www.inkscape.org/namespaces/inkscape"
   width="75.538132"
   height="50.539932"
   viewBox="0 0 19.98613 13.372024"
   version="1.1"
   id="svg23489"
   inkscape:version="0.48.5 r10040"
   sodipodi:docname="plug_connector_male.svg">
  <defs
     id="defs23483" />
  <sodipodi:namedview
     id="base"
     pagecolor="#7d848b"
     bordercolor="#666666"
     borderopacity="1.0"
     inkscape:pageopacity="0"
     inkscape:pageshadow="2"
     inkscape:zoom="0.51893782"
     inkscape:cx="53.285095"
     inkscape:cy="165.24282"
     inkscape:document-units="px"
     inkscape:current-layer="layer1"
     showgrid="true"
     inkscape:pagecheckerboard="false"
     showborder="true"
     units="px"
     inkscape:window-width="1920"
     inkscape:window-height="1017"
     inkscape:window-x="-8"
     inkscape:window-y="-8"
     inkscape:window-maximized="1"
     inkscape:showpageshadow="false"
     guidetolerance="28"
     fit-margin-top="10"
     fit-margin-left="10"
     fit-margin-right="10"
     fit-margin-bottom="10">
    <inkscape:grid
       type="xygrid"
       id="grid24034"
       spacingx="1px"
       spacingy="1px"
       empspacing="8"
       visible="true"
       enabled="true"
       snapvisiblegridlinesonly="true"
       originx="-366.95062px"
       originy="-739.93764px" />
  </sodipodi:namedview>
  <metadata
     id="metadata23486">
    <rdf:RDF>
      <cc:Work
         rdf:about="">
        <dc:format>image/svg+xml</dc:format>
        <dc:type
           rdf:resource="http://purl.org/dc/dcmitype/StillImage" />
        <dc:title></dc:title>
        <cc:license
           rdf:resource="" />
        <dc:creator>
          <cc:Agent>
            <dc:title>Robert Brooks</dc:title>
          </cc:Agent>
        </dc:creator>
      </cc:Work>
    </rdf:RDF>
  </metadata>
  <g
     inkscape:label="Layer 1"
     inkscape:groupmode="layer"
     id="layer1"
     transform="translate(-97.08902,-87.852792)">
    <g
       id="g7734"
       transform="translate(-590.99737,-527.61463)">
      <g
         id="g7737"
         transform="matrix(0.00378598,0.45353811,-0.45353811,0.00378598,913.28368,375.48989)">
        <path
           inkscape:connector-curvature="0"
           style="color:#000000;fill:#ffd326;fill-opacity:1;fill-rule:nonzero;stroke:#081c2a;stroke-width:4.66684723;stroke-linejoin:round;stroke-miterlimit:4;stroke-opacity:1;marker:none;visibility:visible;display:inline;overflow:visible;enable-background:accumulate"
           d="m 536.69177,465.11404 c 0.58825,0 1.06183,0.47358 1.06183,1.06183 l 0,6.53432 c 0,0.58825 -0.47358,1.06183 -1.06183,1.06183 -0.58825,0 -1.06183,-0.47358 -1.06183,-1.06183 l 0,-6.53432 c 0,-0.58825 0.47358,-1.06183 1.06183,-1.06183 z"
           id="path7739" />
        <path
           inkscape:connector-curvature="0"
           style="color:#000000;fill:#ffd326;fill-opacity:1;fill-rule:nonzero;stroke:none;stroke-width:2;marker:none;visibility:visible;display:inline;overflow:visible;enable-background:accumulate"
           d="m 536.69177,465.11404 c 0.58825,0 1.06183,0.47358 1.06183,1.06183 l 0,6.53432 c 0,0.58825 -0.47358,1.06183 -1.06183,1.06183 -0.58825,0 -1.06183,-0.47358 -1.06183,-1.06183 l 0,-6.53432 c 0,-0.58825 0.47358,-1.06183 1.06183,-1.06183 z"
           id="path7744" />
        <path
           inkscape:connector-curvature="0"
           style="color:#000000;fill:#ffff00;fill-opacity:1;fill-rule:nonzero;stroke:none;stroke-width:2;marker:none;visibility:visible;display:inline;overflow:visible;enable-background:accumulate"
           d="m 3130.2812,2072.0625 -11.1874,0.094 c -0.6148,0.01 -1.1434,0.3146 -1.4688,0.7813 0,0.01 0,0.025 0,0.031 0.068,0.1777 0.125,0.2812 0.125,0.2812 0,0 12.0576,-0.302 12.75,0.094 0.6803,0.3887 0.507,1.9148 -0.25,2.3437 l 0.062,0 c 1.0084,-0.01 1.8209,-0.8354 1.8125,-1.8437 -0.01,-1.0084 -0.8354,-1.7897 -1.8438,-1.7813 z"
           transform="matrix(0.00486948,-0.58333555,0.58333555,0.00486948,-688.31273,2282.0921)"
           id="path7747" />
      </g>
      <g
         transform="matrix(0.00378598,0.45353811,-0.45353811,0.00378598,913.28368,378.61372)"
         id="g7749">
        <path
           inkscape:connector-curvature="0"
           style="color:#000000;fill:#ffd326;fill-opacity:1;fill-rule:nonzero;stroke:#081c2a;stroke-width:4.66684723;stroke-linejoin:round;stroke-miterlimit:4;stroke-opacity:1;marker:none;visibility:visible;display:inline;overflow:visible;enable-background:accumulate"
           d="m 536.69177,465.11404 c 0.58825,0 1.06183,0.47358 1.06183,1.06183 l 0,6.53432 c 0,0.58825 -0.47358,1.06183 -1.06183,1.06183 -0.58825,0 -1.06183,-0.47358 -1.06183,-1.06183 l 0,-6.53432 c 0,-0.58825 0.47358,-1.06183 1.06183,-1.06183 z"
           id="path7751" />
        <path
           inkscape:connector-curvature="0"
           style="color:#000000;fill:#ffd326;fill-opacity:1;fill-rule:nonzero;stroke:none;stroke-width:2;marker:none;visibility:visible;display:inline;overflow:visible;enable-background:accumulate"
           d="m 536.69177,465.11404 c 0.58825,0 1.06183,0.47358 1.06183,1.06183 l 0,6.53432 c 0,0.58825 -0.47358,1.06183 -1.06183,1.06183 -0.58825,0 -1.06183,-0.47358 -1.06183,-1.06183 l 0,-6.53432 c 0,-0.58825 0.47358,-1.06183 1.06183,-1.06183 z"
           id="path7753" />
        <path
           inkscape:connector-curvature="0"
           style="color:#000000;fill:#ffff00;fill-opacity:1;fill-rule:nonzero;stroke:none;stroke-width:2;marker:none;visibility:visible;display:inline;overflow:visible;enable-background:accumulate"
           d="m 3130.2812,2083.8438 -11.1874,0.094 c -0.5968,0.01 -1.1097,0.3061 -1.4376,0.75 0.3304,0.1963 0.5938,0.3437 0.5938,0.3437 l 11.6562,0 c 0,0 0.8907,-0.5877 1.1876,1.0938 0.1003,0.5689 -0.1381,0.9898 -0.4688,1.3438 0.8592,-0.1529 1.5075,-0.9094 1.5,-1.8126 -0.01,-1.0083 -0.8354,-1.8209 -1.8438,-1.8124 z"
           transform="matrix(0.00486948,-0.58333555,0.58333555,0.00486948,-695.19995,2282.0346)"
           id="path7755" />
      </g>
      <g
         id="g7757"
         transform="matrix(1.0420386,0,0,1.0420386,-29.331516,-26.122591)">
        <path
           sodipodi:nodetypes="ccccccccscc"
           inkscape:connector-curvature="0"
           id="path7759"
           d="m 701.40394,619.2559 c -0.0238,-0.005 -0.0489,0.003 -0.0744,0.008 l -2.66237,0 -0.0413,0 0,0.008 -6.60633,1.04177 c 0.35836,1.14276 -0.0564,3.94279 0.0331,3.67938 l 6.61459,0.95911 2.66237,0.0414 c 0.69934,0.006 0.81026,-5.58768 0.0744,-5.73818 z"
           style="color:#000000;fill:#75fff2;fill-opacity:1;fill-rule:nonzero;stroke:#081c2a;stroke-width:2.03127503;stroke-linecap:round;stroke-linejoin:round;stroke-miterlimit:4;stroke-opacity:1;stroke-dasharray:none;stroke-dashoffset:0;marker:none;visibility:visible;display:inline;overflow:visible;enable-background:accumulate" />
        <path
           style="color:#000000;fill:#a0d9ff;fill-opacity:1;fill-rule:nonzero;stroke:none;stroke-width:8;marker:none;visibility:visible;display:inline;overflow:visible;enable-background:accumulate"
           d="m 698.66303,619.26759 -6.64372,1.04342 c 0.30069,-0.14984 0.27461,2.60427 0.0308,3.68435 l 6.62831,0.95673 c -0.15751,-0.0601 0.0603,-5.87007 -0.0153,-5.6845 z"
           id="path7761"
           inkscape:connector-curvature="0"
           sodipodi:nodetypes="cccccc" />
        <path
           sodipodi:nodetypes="ccccc"
           inkscape:connector-curvature="0"
           id="path7763"
           d="m 698.62854,624.95965 2.70174,0.037 c 0.72194,0 0.81622,-5.95527 0,-5.73656 0,0 -1.99467,0 -2.70174,0 0.0903,-0.26929 -0.16464,5.56545 0,5.69956 z"
           style="color:#000000;fill:#d1edff;fill-opacity:1;fill-rule:nonzero;stroke:none;stroke-width:5;marker:none;visibility:visible;display:inline;overflow:visible;enable-background:accumulate" />
        <path
           inkscape:connector-curvature="0"
           style="opacity:0.5575221;color:#000000;fill:#3f9bdb;fill-opacity:1;fill-rule:nonzero;stroke:none;stroke-width:8;marker:none;visibility:visible;display:inline;overflow:visible;enable-background:accumulate"
           d="m 3419,2129.6562 -26.0312,4.0626 c 0.3883,0.086 0.6032,1.5859 0.6874,3.5937 5.8941,-0.4731 21.7476,-1.8273 25.3438,-2.1563 0.028,-1.5374 0.059,-2.9098 0.062,-3.9062 0,-0.9964 -0.02,-1.617 -0.062,-1.5938 z m -25.6562,16.1876 c -0.1064,0.915 -0.2254,1.7432 -0.375,2.4062 l 26.0624,3.75 0.031,0 c -0.034,-0.028 -0.068,-0.1174 -0.094,-0.2812 -0.027,-0.1786 -0.044,-0.4384 -0.063,-0.75 -0.032,-0.5623 -0.054,-1.3803 -0.062,-2.2813 l -25.5,-2.8437 z"
           transform="matrix(0.25390934,0,0,0.25390934,-169.45468,78.531042)"
           id="path7765" />
        <path
           style="color:#000000;fill:#95d4ff;fill-opacity:1;fill-rule:nonzero;stroke:none;stroke-width:5;marker:none;visibility:visible;display:inline;overflow:visible;enable-background:accumulate"
           d="m 3117.75,2067.25 c -0.094,-0.02 -0.2121,0 -0.3125,0.031 l -10.5937,0 c 0.068,0.2996 0.031,2.6868 -0.031,5.5 2.6572,0.03 8.0167,0.018 12.7187,0.4063 -0.068,-0.8141 -0.1434,-1.5538 -0.25,-2.25 -0.053,-0.3481 -0.124,-0.6906 -0.1874,-1 -0.066,-0.3217 -0.1415,-0.6331 -0.2188,-0.9063 -0.074,-0.2548 -0.1346,-0.4815 -0.2188,-0.6874 -0.019,-0.048 -0.043,-0.08 -0.062,-0.125 -0.058,-0.1344 -0.1246,-0.2662 -0.1876,-0.375 -0.012,-0.021 -0.019,-0.043 -0.031,-0.063 -0.039,-0.064 -0.084,-0.1023 -0.125,-0.1562 -0.065,-0.083 -0.1182,-0.1619 -0.1875,-0.2188 -0.02,-0.018 -0.042,-0.016 -0.062,-0.031 -0.035,-0.025 -0.058,-0.044 -0.094,-0.062 -0.056,-0.03 -0.097,-0.05 -0.1562,-0.062 z m 1.3125,19.125 c -2.1871,-0.021 -10.4693,0.027 -12.4687,0.031 0.014,1.8312 0.074,3.1949 0.2187,3.3126 l 10.625,0.125 c 0.172,0 0.345,-0.088 0.5,-0.25 0.155,-0.162 0.3009,-0.3854 0.4375,-0.6876 0.01,-0.018 0.023,-0.044 0.031,-0.062 0.1235,-0.2861 0.2369,-0.6444 0.3438,-1.0313 0.01,-0.037 0.021,-0.087 0.031,-0.125 0.1028,-0.3896 0.1948,-0.8438 0.2813,-1.3125 z"
           transform="matrix(0.25390934,0,0,0.25390934,-90.219324,94.363817)"
           id="path7767"
           inkscape:connector-curvature="0" />
        <path
           inkscape:connector-curvature="0"
           style="font-size:medium;font-style:normal;font-variant:normal;font-weight:normal;font-stretch:normal;text-indent:0;text-align:start;text-decoration:none;line-height:normal;letter-spacing:normal;word-spacing:normal;text-transform:none;direction:ltr;block-progression:tb;writing-mode:lr-tb;text-anchor:start;baseline-shift:baseline;color:#000000;fill:#7bbfee;fill-opacity:1;fill-rule:nonzero;stroke:none;stroke-width:1;marker:none;visibility:visible;display:inline;overflow:visible;enable-background:accumulate;font-family:Sans;-inkscape-font-specification:Sans"
           d="m 3418.7188,2138.0938 c -0.799,0.073 -1.0029,0.1556 -2.3126,0.2812 -2.6192,0.2513 -6.0544,0.6025 -9.4687,0.9375 -5.9038,0.5792 -11.5644,1.1702 -13.25,1.3437 -0.01,0.3551 -0.017,0.7041 -0.031,1.0626 1.619,-0.1651 7.4102,-0.7585 13.375,-1.3438 3.414,-0.3348 6.8509,-0.6863 9.4688,-0.9375 1.3089,-0.1256 1.5475,-0.2392 2.3438,-0.3125 0.035,0 0.066,-0.014 0.094,-0.031 0.01,-0.3308 -0.01,-0.5813 0,-0.9063 -0.055,-0.067 -0.1355,-0.1013 -0.2187,-0.094 z"
           transform="matrix(0.25390934,0,0,0.25390934,-169.45468,78.531042)"
           id="path7769" />
        <path
           sodipodi:nodetypes="cccccc"
           transform="matrix(0.26458334,0,0,0.26458334,-123.02949,72.103469)"
           inkscape:connector-curvature="0"
           id="path7771"
           d="m 3114.2371,2075.1328 c 0.035,1.4983 0.1729,2.1639 0.049,4.9455 l 2.5788,0.018 c 0.4698,-1.2081 -0.01,-5.0621 -0.01,-5.0621 0,0 -2.017,-0.1024 -2.6211,0.099 0.6041,0.6712 4e-4,-5e-4 4e-4,-5e-4 z"
           style="color:#000000;fill:#ffffff;fill-opacity:1;fill-rule:nonzero;stroke:none;stroke-width:5;marker:none;visibility:visible;display:inline;overflow:visible;enable-background:accumulate" />
        <path
           inkscape:connector-curvature="0"
           id="path7773"
           transform="matrix(0.26458334,0,0,0.26458334,-123.02949,72.103469)"
           d="m 3105.2364,2076.2188 0,1 7.0761,0 0,5.7187 0,0.5 0.5,0 4.8125,0 c 0.032,-0.3329 0.037,-0.6543 0.062,-1 l -4.375,0 0,-5.7187 0,-0.5 -0.5,0 -7.5761,0 z"
           style="font-size:medium;font-style:normal;font-variant:normal;font-weight:normal;font-stretch:normal;text-indent:0;text-align:start;text-decoration:none;line-height:normal;letter-spacing:normal;word-spacing:normal;text-transform:none;direction:ltr;block-progression:tb;writing-mode:lr-tb;text-anchor:start;baseline-shift:baseline;color:#000000;fill:#6ab6eb;fill-opacity:1;fill-rule:nonzero;stroke:none;stroke-width:1;marker:none;visibility:visible;display:inline;overflow:visible;enable-background:accumulate;font-family:Sans;-inkscape-font-specification:Sans"
           sodipodi:nodetypes="cccccccccccccc" />
      </g>
    </g>
  </g>
</svg>
