<?xml version="1.0" encoding="UTF-8" standalone="no"?>
<!-- Created with Inkscape (http://www.inkscape.org/) -->

<svg
   xmlns:dc="http://purl.org/dc/elements/1.1/"
   xmlns:cc="http://creativecommons.org/ns#"
   xmlns:rdf="http://www.w3.org/1999/02/22-rdf-syntax-ns#"
   xmlns:svg="http://www.w3.org/2000/svg"
   xmlns="http://www.w3.org/2000/svg"
   xmlns:sodipodi="http://sodipodi.sourceforge.net/DTD/sodipodi-0.dtd"
   xmlns:inkscape="http://www.inkscape.org/namespaces/inkscape"
   width="56.636311"
   height="35.002773"
   viewBox="0 0 14.985023 9.2611504"
   version="1.1"
   id="svg23489"
   inkscape:version="0.48.5 r10040"
   sodipodi:docname="console_screen_wave_03.svg">
  <defs
     id="defs23483" />
  <sodipodi:namedview
     id="base"
     pagecolor="#7d848b"
     bordercolor="#666666"
     borderopacity="1.0"
     inkscape:pageopacity="0"
     inkscape:pageshadow="2"
     inkscape:zoom="1.6196535"
     inkscape:cx="-271.73876"
     inkscape:cy="8.9662087"
     inkscape:document-units="px"
     inkscape:current-layer="layer1"
     showgrid="false"
     inkscape:pagecheckerboard="false"
     showborder="true"
     units="px"
     inkscape:window-width="1920"
     inkscape:window-height="1017"
     inkscape:window-x="-8"
     inkscape:window-y="-8"
     inkscape:window-maximized="1"
     inkscape:showpageshadow="false"
     guidetolerance="28"
     fit-margin-top="0"
     fit-margin-left="0"
     fit-margin-bottom="0"
     fit-margin-right="0">
    <inkscape:grid
       type="xygrid"
       id="grid24034"
       spacingx="1px"
       spacingy="1px"
       empspacing="8"
       visible="true"
       enabled="true"
       snapvisiblegridlinesonly="true"
       originx="746.70963px"
       originy="-389.46526px" />
  </sodipodi:namedview>
  <metadata
     id="metadata23486">
    <rdf:RDF>
      <cc:Work
         rdf:about="">
        <dc:format>image/svg+xml</dc:format>
        <dc:type
           rdf:resource="http://purl.org/dc/dcmitype/StillImage" />
        <dc:title></dc:title>
        <cc:license
           rdf:resource="" />
        <dc:creator>
          <cc:Agent>
            <dc:title>Robert Brooks</dc:title>
          </cc:Agent>
        </dc:creator>
      </cc:Work>
    </rdf:RDF>
  </metadata>
  <g
     inkscape:label="Layer 1"
     inkscape:groupmode="layer"
     id="layer1"
     transform="translate(197.5669,-184.69281)">
    <g
       transform="translate(-1030.7117,-54.163939)"
       id="g53657">
      <path
         style="opacity:0;color:#000000;fill:#0f3a2e;fill-opacity:1;fill-rule:nonzero;stroke:none;stroke-width:10;marker:none;visibility:visible;display:inline;overflow:visible;enable-background:accumulate"
         d="m 834.07569,238.85675 13.11994,0 c 0.51572,0 0.9309,0.41518 0.9309,0.93089 l 0,7.39937 c 0,0.51571 -0.41518,0.93089 -0.9309,0.93089 l -13.11994,0 c -0.51571,0 -0.93089,-0.41518 -0.93089,-0.93089 l 0,-7.39937 c 0,-0.51571 0.41518,-0.93089 0.93089,-0.93089 z"
         id="path53659"
         inkscape:connector-curvature="0"
         sodipodi:nodetypes="sssssssss" />
      <path
         inkscape:connector-curvature="0"
         style="font-size:medium;font-style:normal;font-variant:normal;font-weight:normal;font-stretch:normal;text-indent:0;text-align:start;text-decoration:none;line-height:normal;letter-spacing:normal;word-spacing:normal;text-transform:none;direction:ltr;block-progression:tb;writing-mode:lr-tb;text-anchor:start;baseline-shift:baseline;color:#000000;fill:#195f4b;fill-opacity:1;fill-rule:nonzero;stroke:none;stroke-width:0.15875;marker:none;visibility:visible;display:inline;overflow:visible;enable-background:accumulate;font-family:Sans;-inkscape-font-specification:Sans"
         d="m 3620,630.25 0,6.1875 -5.5938,0 a 0.25045462,0.25045462 0 0 0 -0.062,0 0.25045462,0.25045462 0 0 0 -0.031,0 0.25045462,0.25045462 0 0 0 -0.031,-0.0312 0.25045462,0.25045462 0 0 0 -0.031,0 0.25045462,0.25045462 0 0 0 -0.031,0.0312 0.25045462,0.25045462 0 0 0 -0.063,0 0.25045462,0.25045462 0 0 0 -0.031,0.0312 0.25045462,0.25045462 0 0 0 -0.031,0.0312 0.25045462,0.25045462 0 0 0 0,0.0937 0.25045462,0.25045462 0 0 0 0,0.0312 0.25045462,0.25045462 0 0 0 0,0.0937 0.25045462,0.25045462 0 0 0 0.031,0.0312 0.25045462,0.25045462 0 0 0 0.062,0.0312 0.25045462,0.25045462 0 0 0 0.031,0.0312 0.25045462,0.25045462 0 0 0 0.031,0.0625 0.25045462,0.25045462 0 0 0 0.031,0.0312 0.25045462,0.25045462 0 0 0 0.031,0.0312 0.25045462,0.25045462 0 0 0 0.062,0 0.25045462,0.25045462 0 0 0 0.031,0 l 5.5938,0 0,6.875 -5.5938,0 a 0.25045462,0.25045462 0 0 0 -0.062,0 0.25045462,0.25045462 0 0 0 -0.031,0 0.25045462,0.25045462 0 0 0 -0.031,0 0.25045462,0.25045462 0 0 0 -0.062,0 0.25045462,0.25045462 0 0 0 0,0.0625 0.25045462,0.25045462 0 0 0 0,0.0312 0.25045462,0.25045462 0 0 0 -0.094,0 0.25045462,0.25045462 0 0 0 -0.031,0 0.25045462,0.25045462 0 0 0 0,0.0937 0.25045462,0.25045462 0 0 0 0,0.0312 0.25045462,0.25045462 0 0 0 0,0.0625 0.25045462,0.25045462 0 0 0 0,0.0625 0.25045462,0.25045462 0 0 0 0,0.0312 0.25045462,0.25045462 0 0 0 0.125,0.0312 0.25045462,0.25045462 0 0 0 0,0.0937 0.25045462,0.25045462 0 0 0 0.031,0 0.25045462,0.25045462 0 0 0 0.062,0 0.25045462,0.25045462 0 0 0 0.062,0 0.25045462,0.25045462 0 0 0 0.031,0 l 5.5938,0 0,6.90625 -5.5938,0 a 0.25045462,0.25045462 0 0 0 -0.062,-0.0312 0.25045462,0.25045462 0 0 0 -0.031,0.0312 0.25045462,0.25045462 0 0 0 -0.062,-0.0312 0.25045462,0.25045462 0 0 0 -0.031,0.0312 0.25045462,0.25045462 0 0 0 0,0.0312 0.25045462,0.25045462 0 0 0 0,0.0312 0.25045462,0.25045462 0 0 0 -0.094,0 0.25045462,0.25045462 0 0 0 -0.031,0 0.25045462,0.25045462 0 0 0 0,0.125 0.25045462,0.25045462 0 0 0 0,0.0312 0.25045462,0.25045462 0 0 0 0,0.0625 0.25045462,0.25045462 0 0 0 0,0.0937 0.25045462,0.25045462 0 0 0 0,0.0312 0.25045462,0.25045462 0 0 0 0.125,0 0.25045462,0.25045462 0 0 0 0,0.0625 0.25045462,0.25045462 0 0 0 0.031,0 0.25045462,0.25045462 0 0 0 0.062,0 0.25045462,0.25045462 0 0 0 0.062,0 0.25045462,0.25045462 0 0 0 0.031,0 l 5.5938,0 0,6.90625 -5.5938,0 a 0.25045462,0.25045462 0 0 0 -0.062,0 0.25045462,0.25045462 0 0 0 -0.031,0 0.25045462,0.25045462 0 0 0 -0.031,0 0.25045462,0.25045462 0 0 0 -0.062,0 0.25045462,0.25045462 0 0 0 0,0.0937 0.25045462,0.25045462 0 0 0 0,0.0312 0.25045462,0.25045462 0 0 0 -0.094,0.0625 0.25045462,0.25045462 0 0 0 -0.031,0.0312 0.25045462,0.25045462 0 0 0 0,0.0312 0.25045462,0.25045462 0 0 0 0,0.0312 0.25045462,0.25045462 0 0 0 0,0.125 0.25045462,0.25045462 0 0 0 0.062,0.0625 0.25045462,0.25045462 0 0 0 0.063,0.0312 0.25045462,0.25045462 0 0 0 0.031,0 0.25045462,0.25045462 0 0 0 0.062,0 0.25045462,0.25045462 0 0 0 0.062,0 0.25045462,0.25045462 0 0 0 0.031,0 l 5.5938,0 0,6.15625 0.5,0 0,-6.15625 6.875,0 0,6.15625 0.5,0 0,-6.15625 6.9062,0 0,6.15625 0.5,0 0,-6.15625 6.9063,0 0,6.15625 0.5,0 0,-6.15625 6.4687,0 0,6.15625 0.5,0 0,-6.15625 6.875,0 0,6.15625 0.5,0 0,-6.15625 6.9063,0 0,6.15625 0.4687,0 0,-6.15625 6.0938,0 0,-0.5 -6.0938,0 0,-6.90625 6.0938,0 0,-0.46875 -6.0938,0 0,-6.90625 6.0938,0 0,-0.5 -6.0938,0 0,-6.90625 6.0938,0 0,-0.46875 -6.0938,0 0,-6.1875 -0.4687,0 0,6.1875 -6.9063,0 0,-6.1875 -0.5,0 0,6.1875 -6.9062,0 0,-6.1875 -0.4688,0 0,6.1875 -6.4687,0 0,-6.1875 -0.5,0 0,6.1875 -6.9375,0 0,-6.1875 -0.4688,0 0,6.1875 -6.9062,0 0,-6.1875 -0.5,0 0,6.1875 -6.875,0 0,-6.1875 -0.5,0 z m 0.5,6.65625 6.875,0 0,6.90625 -6.875,0 0,-6.90625 z m 7.375,0 6.9062,0 0,6.90625 -6.9062,0 0,-6.90625 z m 7.375,0 6.9375,0 0,6.90625 -6.9375,0 0,-6.90625 z m 7.4375,0 6.4687,0 0,6.90625 -6.4687,0 0,-6.90625 z m 6.9375,0 6.9062,0 0,6.90625 -6.9062,0 0,-6.90625 z m 7.4062,0 6.9063,0 0,6.90625 -6.9063,0 0,-6.90625 z m -36.5312,7.40625 6.875,0 0,6.90625 -6.875,0 0,-6.90625 z m 7.375,0 6.9062,0 0,6.90625 -6.9062,0 0,-6.90625 z m 7.375,0 6.9375,0 0,6.90625 -6.9375,0 0,-6.90625 z m 7.4375,0 6.4687,0 0,6.90625 -6.4687,0 0,-6.90625 z m 6.9375,0 6.9062,0 0,6.90625 -6.9062,0 0,-6.90625 z m 7.4062,0 6.9063,0 0,6.90625 -6.9063,0 0,-6.90625 z m -36.5312,7.375 6.875,0 0,6.90625 -6.875,0 0,-6.90625 z m 7.375,0 6.9062,0 0,6.90625 -6.9062,0 0,-6.90625 z m 7.375,0 6.9375,0 0,6.90625 -6.9375,0 0,-6.90625 z m 7.4375,0 6.4687,0 0,6.90625 -6.4687,0 0,-6.90625 z m 6.9375,0 6.9062,0 0,6.90625 -6.9062,0 0,-6.90625 z m 7.4062,0 6.9063,0 0,6.90625 -6.9063,0 0,-6.90625 z"
         transform="matrix(0.26458334,0,0,0.26458334,-123.02949,72.103469)"
         id="path53661" />
      <path
         style="color:#000000;fill:#00ff00;fill-opacity:1;fill-rule:nonzero;stroke:none;stroke-width:10;marker:none;visibility:visible;display:inline;overflow:visible;enable-background:accumulate"
         d="m 3739.3438,416.1875 0,3.0625 2.8437,0 13.25,0 13.2187,0 13.2188,0 13.3438,0 0.75,0 0,-3.0625 -0.75,0 -13.3438,0 -13.2188,0 -13.2187,0 -13.25,0 -2.8437,0 z"
         transform="matrix(0.26458334,0,0,0.26458334,-156.22028,133.25719)"
         id="path53714"
         inkscape:connector-curvature="0" />
    </g>
  </g>
</svg>
