<?xml version="1.0" encoding="UTF-8" standalone="no"?>
<!-- Created with Inkscape (http://www.inkscape.org/) -->

<svg
   xmlns:dc="http://purl.org/dc/elements/1.1/"
   xmlns:cc="http://creativecommons.org/ns#"
   xmlns:rdf="http://www.w3.org/1999/02/22-rdf-syntax-ns#"
   xmlns:svg="http://www.w3.org/2000/svg"
   xmlns="http://www.w3.org/2000/svg"
   xmlns:xlink="http://www.w3.org/1999/xlink"
   xmlns:sodipodi="http://sodipodi.sourceforge.net/DTD/sodipodi-0.dtd"
   xmlns:inkscape="http://www.inkscape.org/namespaces/inkscape"
   width="131.03954"
   height="129.61415"
   viewBox="0 0 34.670873 34.293749"
   version="1.1"
   id="svg23489"
   inkscape:version="0.48.5 r10040"
   sodipodi:docname="clamp_single.svg">
  <defs
     id="defs23483">
    <linearGradient
       inkscape:collect="always"
       xlink:href="#linearGradient59259"
       id="linearGradient59406"
       gradientUnits="userSpaceOnUse"
       x1="2083.6655"
       y1="1286.1252"
       x2="2106.3198"
       y2="1346.802" />
    <linearGradient
       inkscape:collect="always"
       id="linearGradient59259">
      <stop
         style="stop-color:#29e4ff;stop-opacity:1"
         offset="0"
         id="stop59261" />
      <stop
         style="stop-color:#009dff;stop-opacity:1"
         offset="1"
         id="stop59263" />
    </linearGradient>
    <linearGradient
       inkscape:collect="always"
       xlink:href="#linearGradient59259"
       id="linearGradient23379"
       gradientUnits="userSpaceOnUse"
       x1="2083.6655"
       y1="1286.1252"
       x2="2106.3198"
       y2="1346.802" />
    <linearGradient
       inkscape:collect="always"
       xlink:href="#linearGradient59259"
       id="linearGradient23409"
       gradientUnits="userSpaceOnUse"
       x1="2083.6655"
       y1="1286.1252"
       x2="2106.3198"
       y2="1346.802"
       gradientTransform="matrix(0.23290184,0,0,0.23290184,-503.49119,-120.94507)" />
  </defs>
  <sodipodi:namedview
     id="base"
     pagecolor="#7d848b"
     bordercolor="#666666"
     borderopacity="1.0"
     inkscape:pageopacity="0"
     inkscape:pageshadow="2"
     inkscape:zoom="4.1515026"
     inkscape:cx="83.980301"
     inkscape:cy="60.840541"
     inkscape:document-units="px"
     inkscape:current-layer="layer1"
     showgrid="false"
     inkscape:pagecheckerboard="false"
     showborder="true"
     units="px"
     inkscape:window-width="1920"
     inkscape:window-height="1017"
     inkscape:window-x="-8"
     inkscape:window-y="-8"
     inkscape:window-maximized="1"
     inkscape:showpageshadow="false"
     guidetolerance="28"
     fit-margin-top="9"
     fit-margin-left="9"
     fit-margin-bottom="9"
     fit-margin-right="9">
    <inkscape:grid
       type="xygrid"
       id="grid24034"
       spacingx="1px"
       spacingy="1px"
       empspacing="8"
       visible="true"
       enabled="true"
       snapvisiblegridlinesonly="true"
       originx="135.07221px"
       originy="-379.18823px" />
  </sodipodi:namedview>
  <metadata
     id="metadata23486">
    <rdf:RDF>
      <cc:Work
         rdf:about="">
        <dc:format>image/svg+xml</dc:format>
        <dc:type
           rdf:resource="http://purl.org/dc/dcmitype/StillImage" />
        <dc:title></dc:title>
        <cc:license
           rdf:resource="" />
        <dc:creator>
          <cc:Agent>
            <dc:title>Robert Brooks</dc:title>
          </cc:Agent>
        </dc:creator>
      </cc:Work>
    </rdf:RDF>
  </metadata>
  <g
     inkscape:label="Layer 1"
     inkscape:groupmode="layer"
     id="layer1"
     transform="translate(35.737871,-162.37936)">
    <g
       transform="matrix(0.26458336,0,0,0.26458336,289.86238,339.80625)"
       id="layer1-9"
       inkscape:groupmode="layer"
       inkscape:label="Layer 1">
      <g
         transform="translate(61.182631,53.956335)"
         id="layer1-0"
         inkscape:groupmode="layer"
         inkscape:label="Layer 1">
        <g
           transform="translate(-1303.6764,-780.90964)"
           id="layer1-97"
           inkscape:groupmode="layer"
           inkscape:label="Layer 1" />
      </g>
    </g>
    <g
       id="g23440"
       gds_color="frame">
      <path
         style="color:#000000;fill:#95d3fe;fill-opacity:1;fill-rule:nonzero;stroke:#081c2a;stroke-width:2.11666679;stroke-linecap:round;stroke-linejoin:round;stroke-miterlimit:4;stroke-opacity:1;stroke-dashoffset:0;marker:none;visibility:visible;display:inline;overflow:visible;enable-background:accumulate"
         d="m -4.5199,179.52057 c 0,7.57053 -6.13717,13.70767 -13.70769,13.70767 -7.57052,0 -13.70769,-6.13714 -13.70769,-13.70767 0,-7.57055 6.13717,-13.70766 13.70769,-13.70766 7.57052,0 13.70769,6.13711 13.70769,13.70766 z"
         id="path59235"
         inkscape:connector-curvature="0"
         sodipodi:nodetypes="sssss" />
      <path
         style="color:#000000;fill:#c3e7ff;fill-opacity:1;fill-rule:nonzero;stroke:none;stroke-width:8;marker:none;visibility:visible;display:inline;overflow:visible;enable-background:accumulate"
         d="m -4.5199,179.52057 c 0,7.57053 -6.13717,13.70767 -13.70769,13.70767 -7.57052,0 -13.70769,-6.13714 -13.70769,-13.70767 0,-7.57055 6.13717,-13.70766 13.70769,-13.70766 7.57052,0 13.70769,6.13711 13.70769,13.70766 z"
         id="path59237"
         inkscape:connector-curvature="0"
         sodipodi:nodetypes="sssss" />
      <path
         style="color:#000000;fill:#ffffff;fill-opacity:1;fill-rule:nonzero;stroke:none;stroke-width:8;marker:none;visibility:visible;display:inline;overflow:visible;enable-background:accumulate"
         d="m 66.1875,12.96875 c -28.612985,0 -51.8125,23.199402 -51.8125,51.8125 0,28.613023 23.199515,51.8125 51.8125,51.8125 28.612985,0 51.8125,-23.199477 51.8125,-51.8125 0,-28.613098 -23.199515,-51.8125 -51.8125,-51.8125 z m 0,1.6875 c 28.147374,0 50.96875,22.443139 50.96875,50.125 0,27.681785 -22.821376,50.125 -50.96875,50.125 -28.147374,0 -50.96875,-22.443215 -50.96875,-50.125 0,-27.681861 22.821376,-50.125 50.96875,-50.125 z"
         transform="matrix(0.26458337,0,0,0.26458337,-35.737876,162.37936)"
         id="path23452"
         inkscape:connector-curvature="0" />
    </g>
    <g
       id="g23414"
       gds_color="clamps">
      <g
         transform="translate(-446.04199,-230.86439)"
         id="g59308">
        <g
           id="g59291">
          <path
             sodipodi:nodetypes="ccscc"
             transform="matrix(0.26458334,0,0,0.26458334,-123.02949,72.103469)"
             inkscape:connector-curvature="0"
             id="path59289"
             d="m 2109.0605,1316.9242 0.8123,8.2855 c 16.7334,-11.3722 17.4645,-18.1955 17.4645,-17.4645 0,0.7311 -8.5292,0 -8.5292,0 -0.8123,1.4621 -3.899,5.7673 -9.7476,9.179 z"
             style="color:#000000;fill:#0799ff;fill-opacity:1;fill-rule:nonzero;stroke:#081c2a;stroke-width:6;stroke-linejoin:round;stroke-opacity:1;marker:none;visibility:visible;display:inline;overflow:visible;enable-background:accumulate" />
        </g>
        <path
           sodipodi:nodetypes="ccscc"
           transform="matrix(0.26458334,0,0,0.26458334,-123.02949,72.103469)"
           inkscape:connector-curvature="0"
           id="path59287"
           d="m 2109.0605,1316.9242 0.8123,8.2855 c 16.7334,-11.3722 17.4645,-18.1955 17.4645,-17.4645 0,0.7311 -8.5292,0 -8.5292,0 -0.8123,1.4621 -3.899,5.7673 -9.7476,9.179 z"
           style="color:#000000;fill:#0799ff;fill-opacity:1;fill-rule:nonzero;stroke:none;stroke-width:6;marker:none;visibility:visible;display:inline;overflow:visible;enable-background:accumulate" />
        <path
           inkscape:connector-curvature="0"
           id="path59294"
           transform="matrix(0.26458334,0,0,0.26458334,-123.02949,72.103469)"
           d="m 2127.3125,1307.6875 c -0.01,0.013 0,0.056 -0.031,0.125 0.02,-0.022 0.063,-0.037 0.063,-0.062 0,-0.046 -0.022,-0.075 -0.031,-0.062 z m -0.062,0.1875 c -0.2442,0.1361 -0.9886,0.1777 -1.875,0.1875 -0.2049,0.3817 -0.3288,0.6321 -0.5625,1.0625 -3.0867,5.6862 -12.0252,11.0564 -13,12.0312 -0.8494,0.8495 -1.7131,0.2152 -2.5625,-2.2187 l 0.625,6.2813 c 14.4623,-9.8288 16.9603,-16.2511 17.375,-17.3438 z"
           style="color:#000000;fill:#006bb6;fill-opacity:1;fill-rule:nonzero;stroke:none;stroke-width:6;marker:none;visibility:visible;display:inline;overflow:visible;enable-background:accumulate" />
        <path
           inkscape:connector-curvature="0"
           id="path59299"
           transform="matrix(0.26458334,0,0,0.26458334,-123.02949,72.103469)"
           d="m 2127.3125,1307.6875 c -0.01,0.013 0,0.056 -0.031,0.125 0.02,-0.022 0.063,-0.037 0.063,-0.062 0,-0.046 -0.022,-0.075 -0.031,-0.062 z m -8.5,0.062 c -0.8123,1.4621 -3.9014,5.7758 -9.75,9.1875 l 0.1875,1.9063 c 6.1298,-2.6275 11.1875,-10.0313 11.1875,-10.0313 0,0 3.3902,0.2031 6.4375,-0.094 0.1875,-0.3936 0.3132,-0.681 0.375,-0.8438 -0.937,0.5221 -8.4375,-0.125 -8.4375,-0.125 z"
           style="color:#000000;fill:#88cefd;fill-opacity:1;fill-rule:nonzero;stroke:none;stroke-width:6;marker:none;visibility:visible;display:inline;overflow:visible;enable-background:accumulate" />
        <path
           transform="matrix(0.26458334,0,0,0.26458334,-123.02949,72.103469)"
           d="m 2114.909,1317.8177 a 1.7058338,1.7058338 0 1 1 -3.4117,0 1.7058338,1.7058338 0 1 1 3.4117,0 z"
           sodipodi:ry="1.7058338"
           sodipodi:rx="1.7058338"
           sodipodi:cy="1317.8177"
           sodipodi:cx="2113.2031"
           id="path59304"
           style="color:#000000;fill:#081c2a;fill-opacity:1;fill-rule:nonzero;stroke:none;stroke-width:6;marker:none;visibility:visible;display:inline;overflow:visible;enable-background:accumulate"
           sodipodi:type="arc" />
        <path
           sodipodi:type="arc"
           style="color:#000000;fill:#081c2a;fill-opacity:1;fill-rule:nonzero;stroke:none;stroke-width:6;marker:none;visibility:visible;display:inline;overflow:visible;enable-background:accumulate"
           id="path59306"
           sodipodi:cx="2113.2031"
           sodipodi:cy="1317.8177"
           sodipodi:rx="1.7058338"
           sodipodi:ry="1.7058338"
           d="m 2114.909,1317.8177 a 1.7058338,1.7058338 0 1 1 -3.4117,0 1.7058338,1.7058338 0 1 1 3.4117,0 z"
           transform="matrix(0.26458334,0,0,0.26458334,-121.26713,70.599018)" />
      </g>
      <g
         id="g59333"
         transform="matrix(-0.45430028,0.89084862,-0.89084862,-0.45430028,541.74241,-14.96814)">
        <g
           id="g59319">
          <path
             sodipodi:nodetypes="ccscc"
             transform="matrix(0.26458334,0,0,0.26458334,-123.02949,72.103469)"
             inkscape:connector-curvature="0"
             id="path59321"
             d="m 2109.0605,1316.9242 0.8123,8.2855 c 16.7334,-11.3722 17.4645,-18.1955 17.4645,-17.4645 0,0.7311 -8.5292,0 -8.5292,0 -0.8123,1.4621 -3.899,5.7673 -9.7476,9.179 z"
             style="color:#000000;fill:#0799ff;fill-opacity:1;fill-rule:nonzero;stroke:#081c2a;stroke-width:6;stroke-linejoin:round;stroke-opacity:1;marker:none;visibility:visible;display:inline;overflow:visible;enable-background:accumulate" />
        </g>
        <path
           sodipodi:nodetypes="ccscc"
           transform="matrix(0.26458334,0,0,0.26458334,-123.02949,72.103469)"
           inkscape:connector-curvature="0"
           id="path59323"
           d="m 2109.0605,1316.9242 0.8123,8.2855 c 16.7334,-11.3722 17.4645,-18.1955 17.4645,-17.4645 0,0.7311 -8.5292,0 -8.5292,0 -0.8123,1.4621 -3.899,5.7673 -9.7476,9.179 z"
           style="color:#000000;fill:#0799ff;fill-opacity:1;fill-rule:nonzero;stroke:none;stroke-width:6;marker:none;visibility:visible;display:inline;overflow:visible;enable-background:accumulate" />
        <path
           inkscape:connector-curvature="0"
           id="path59325"
           transform="matrix(0.26458334,0,0,0.26458334,-123.02949,72.103469)"
           d="m 2127.3125,1307.6875 c -0.01,0.013 0,0.056 -0.031,0.125 0.02,-0.022 0.063,-0.037 0.063,-0.062 0,-0.046 -0.022,-0.075 -0.031,-0.062 z m -0.062,0.1875 c -0.2442,0.1361 -0.9886,0.1777 -1.875,0.1875 -0.2049,0.3817 -0.3288,0.6321 -0.5625,1.0625 -3.0867,5.6862 -12.0252,11.0564 -13,12.0312 -0.8494,0.8495 -1.7131,0.2152 -2.5625,-2.2187 l 0.625,6.2813 c 14.4623,-9.8288 16.9603,-16.2511 17.375,-17.3438 z"
           style="color:#000000;fill:#006bb6;fill-opacity:1;fill-rule:nonzero;stroke:none;stroke-width:6;marker:none;visibility:visible;display:inline;overflow:visible;enable-background:accumulate" />
        <path
           inkscape:connector-curvature="0"
           id="path59327"
           transform="matrix(0.26458334,0,0,0.26458334,-123.02949,72.103469)"
           d="m 2127.3125,1307.6875 c -0.01,0.013 0,0.056 -0.031,0.125 0.02,-0.022 0.063,-0.037 0.063,-0.062 0,-0.046 -0.022,-0.075 -0.031,-0.062 z m -8.5,0.062 c -0.8123,1.4621 -3.9014,5.7758 -9.75,9.1875 l 0.1875,1.9063 c 6.1298,-2.6275 11.1875,-10.0313 11.1875,-10.0313 0,0 3.3902,0.2031 6.4375,-0.094 0.1875,-0.3936 0.3132,-0.681 0.375,-0.8438 -0.937,0.5221 -8.4375,-0.125 -8.4375,-0.125 z"
           style="color:#000000;fill:#88cefd;fill-opacity:1;fill-rule:nonzero;stroke:none;stroke-width:6;marker:none;visibility:visible;display:inline;overflow:visible;enable-background:accumulate" />
        <path
           transform="matrix(0.26458334,0,0,0.26458334,-123.02949,72.103469)"
           d="m 2114.909,1317.8177 a 1.7058338,1.7058338 0 1 1 -3.4117,0 1.7058338,1.7058338 0 1 1 3.4117,0 z"
           sodipodi:ry="1.7058338"
           sodipodi:rx="1.7058338"
           sodipodi:cy="1317.8177"
           sodipodi:cx="2113.2031"
           id="path59329"
           style="color:#000000;fill:#081c2a;fill-opacity:1;fill-rule:nonzero;stroke:none;stroke-width:6;marker:none;visibility:visible;display:inline;overflow:visible;enable-background:accumulate"
           sodipodi:type="arc" />
        <path
           sodipodi:type="arc"
           style="color:#000000;fill:#081c2a;fill-opacity:1;fill-rule:nonzero;stroke:none;stroke-width:6;marker:none;visibility:visible;display:inline;overflow:visible;enable-background:accumulate"
           id="path59331"
           sodipodi:cx="2113.2031"
           sodipodi:cy="1317.8177"
           sodipodi:rx="1.7058338"
           sodipodi:ry="1.7058338"
           d="m 2114.909,1317.8177 a 1.7058338,1.7058338 0 1 1 -3.4117,0 1.7058338,1.7058338 0 1 1 3.4117,0 z"
           transform="matrix(0.26458334,0,0,0.26458334,-121.26713,70.599018)" />
      </g>
      <g
         transform="matrix(0.02960324,-0.99956173,0.99956173,0.02960324,-440.86614,595.19474)"
         id="g59342">
        <g
           id="g59344">
          <path
             style="color:#000000;fill:#0799ff;fill-opacity:1;fill-rule:nonzero;stroke:#081c2a;stroke-width:6;stroke-linejoin:round;stroke-opacity:1;marker:none;visibility:visible;display:inline;overflow:visible;enable-background:accumulate"
             d="m 2109.0605,1316.9242 0.8123,8.2855 c 16.7334,-11.3722 17.4645,-18.1955 17.4645,-17.4645 0,0.7311 -8.5292,0 -8.5292,0 -0.8123,1.4621 -3.899,5.7673 -9.7476,9.179 z"
             id="path59346"
             inkscape:connector-curvature="0"
             transform="matrix(0.26458334,0,0,0.26458334,-123.02949,72.103469)"
             sodipodi:nodetypes="ccscc" />
        </g>
        <path
           style="color:#000000;fill:#0799ff;fill-opacity:1;fill-rule:nonzero;stroke:none;stroke-width:6;marker:none;visibility:visible;display:inline;overflow:visible;enable-background:accumulate"
           d="m 2109.0605,1316.9242 0.8123,8.2855 c 16.7334,-11.3722 17.4645,-18.1955 17.4645,-17.4645 0,0.7311 -8.5292,0 -8.5292,0 -0.8123,1.4621 -3.899,5.7673 -9.7476,9.179 z"
           id="path59348"
           inkscape:connector-curvature="0"
           transform="matrix(0.26458334,0,0,0.26458334,-123.02949,72.103469)"
           sodipodi:nodetypes="ccscc" />
        <path
           style="color:#000000;fill:#006bb6;fill-opacity:1;fill-rule:nonzero;stroke:none;stroke-width:6;marker:none;visibility:visible;display:inline;overflow:visible;enable-background:accumulate"
           d="m 2127.3125,1307.6875 c -0.01,0.013 0,0.056 -0.031,0.125 0.02,-0.022 0.063,-0.037 0.063,-0.062 0,-0.046 -0.022,-0.075 -0.031,-0.062 z m -0.062,0.1875 c -0.2442,0.1361 -0.9886,0.1777 -1.875,0.1875 -0.2049,0.3817 -0.3288,0.6321 -0.5625,1.0625 -3.0867,5.6862 -12.0252,11.0564 -13,12.0312 -0.8494,0.8495 -1.7131,0.2152 -2.5625,-2.2187 l 0.625,6.2813 c 14.4623,-9.8288 16.9603,-16.2511 17.375,-17.3438 z"
           transform="matrix(0.26458334,0,0,0.26458334,-123.02949,72.103469)"
           id="path59350"
           inkscape:connector-curvature="0" />
        <path
           style="color:#000000;fill:#88cefd;fill-opacity:1;fill-rule:nonzero;stroke:none;stroke-width:6;marker:none;visibility:visible;display:inline;overflow:visible;enable-background:accumulate"
           d="m 2127.3125,1307.6875 c -0.01,0.013 0,0.056 -0.031,0.125 0.02,-0.022 0.063,-0.037 0.063,-0.062 0,-0.046 -0.022,-0.075 -0.031,-0.062 z m -8.5,0.062 c -0.8123,1.4621 -3.9014,5.7758 -9.75,9.1875 l 0.1875,1.9063 c 6.1298,-2.6275 11.1875,-10.0313 11.1875,-10.0313 0,0 3.3902,0.2031 6.4375,-0.094 0.1875,-0.3936 0.3132,-0.681 0.375,-0.8438 -0.937,0.5221 -8.4375,-0.125 -8.4375,-0.125 z"
           transform="matrix(0.26458334,0,0,0.26458334,-123.02949,72.103469)"
           id="path59352"
           inkscape:connector-curvature="0" />
        <path
           sodipodi:type="arc"
           style="color:#000000;fill:#081c2a;fill-opacity:1;fill-rule:nonzero;stroke:none;stroke-width:6;marker:none;visibility:visible;display:inline;overflow:visible;enable-background:accumulate"
           id="path59354"
           sodipodi:cx="2113.2031"
           sodipodi:cy="1317.8177"
           sodipodi:rx="1.7058338"
           sodipodi:ry="1.7058338"
           d="m 2114.909,1317.8177 a 1.7058338,1.7058338 0 1 1 -3.4117,0 1.7058338,1.7058338 0 1 1 3.4117,0 z"
           transform="matrix(0.26458334,0,0,0.26458334,-123.02949,72.103469)" />
        <path
           transform="matrix(0.26458334,0,0,0.26458334,-121.26713,70.599018)"
           d="m 2114.909,1317.8177 a 1.7058338,1.7058338 0 1 1 -3.4117,0 1.7058338,1.7058338 0 1 1 3.4117,0 z"
           sodipodi:ry="1.7058338"
           sodipodi:rx="1.7058338"
           sodipodi:cy="1317.8177"
           sodipodi:cx="2113.2031"
           id="path59356"
           style="color:#000000;fill:#081c2a;fill-opacity:1;fill-rule:nonzero;stroke:none;stroke-width:6;marker:none;visibility:visible;display:inline;overflow:visible;enable-background:accumulate"
           sodipodi:type="arc" />
      </g>
    </g>
    <g
       id="g23459"
       gds_color="dome">
      <path
         inkscape:connector-curvature="0"
         style="color:#000000;fill:#081c2a;fill-opacity:1;fill-rule:nonzero;stroke:#081c2a;stroke-width:1.86321473;stroke-opacity:1;marker:none;visibility:visible;display:inline;overflow:visible;enable-background:accumulate"
         d="m -6.5358408,179.48801 c 0,6.45716 -5.2345852,11.69174 -11.6917422,11.69174 -6.457157,0 -11.691742,-5.23458 -11.691742,-11.69174 0,-6.45716 5.234585,-11.69172 11.691742,-11.69172 6.457157,0 11.6917422,5.23456 11.6917422,11.69172 z"
         id="path59239" />
      <g
         id="g23444">
        <path
           id="path59241"
           d="m -6.5358408,179.48801 c 0,6.45716 -5.2345852,11.69174 -11.6917422,11.69174 -6.457157,0 -11.691742,-5.23458 -11.691742,-11.69174 0,-6.45716 5.234585,-11.69172 11.691742,-11.69172 6.457157,0 11.6917422,5.23456 11.6917422,11.69172 z"
           style="color:#000000;fill:url(#linearGradient23409);fill-opacity:1;fill-rule:nonzero;stroke:none;stroke-width:8;marker:none;visibility:visible;display:inline;overflow:visible;enable-background:accumulate"
           inkscape:connector-curvature="0" />
        <path
           sodipodi:nodetypes="csscc"
           inkscape:connector-curvature="0"
           id="path59245"
           d="m -29.891961,178.79781 c -0.01349,0.22929 -0.02487,0.4536 -0.02487,0.68625 0,6.45719 5.23412,11.69956 11.691277,11.69956 6.457156,0 11.6912758,-5.24237 11.6912758,-11.69956 1.6616363,2.00851 -20.4840688,5.90151 -23.3577348,-0.68625 z"
           style="opacity:0.34070794;color:#000000;fill:#006dff;fill-opacity:1;fill-rule:nonzero;stroke:none;stroke-width:8;marker:none;visibility:visible;display:inline;overflow:visible;enable-background:accumulate" />
        <path
           sodipodi:nodetypes="sscscss"
           inkscape:connector-curvature="0"
           id="path59250"
           d="m -18.225503,167.79281 c -6.457156,0 -11.691276,5.2341 -11.691276,11.69125 0,0.2018 0.0063,0.40431 0.0164,0.6036 0.313135,-6.17755 5.419381,-10.72298 11.67474,-10.72298 6.255359,0 11.3616056,4.54543 11.67474,10.72298 0.010054,-0.19929 0.016404,-0.4018 0.016404,-0.6036 0,-6.45715 -5.23412,-11.69125 -11.691276,-11.69125 z"
           style="color:#000000;fill:#ffffff;fill-opacity:1;fill-rule:nonzero;stroke:none;stroke-width:8;marker:none;visibility:visible;display:inline;overflow:visible;enable-background:accumulate" />
        <path
           id="path59255"
           d="m -19.788211,169.6449 c -0.419576,-0.003 -0.719323,0.13229 -0.719323,0.13229 -5.7599,1.46142 -4.039261,5.66862 -1.546146,5.32474 2.49309,-0.34386 5.157471,-2.40319 4.125834,-4.20854 -0.580285,-1.0155 -1.320853,-1.24455 -1.860365,-1.24849 z m -5.936562,4.31599 c -0.238946,0.005 -0.51189,0.0695 -0.802032,0.19843 -2.14921,1.1176 -1.375304,4.72583 0.859896,3.52229 1.955774,-1.05314 1.614646,-3.75364 -0.05786,-3.72072 z"
           style="color:#000000;fill:#ffffff;fill-opacity:1;fill-rule:nonzero;stroke:none;stroke-width:8;marker:none;visibility:visible;display:inline;overflow:visible;enable-background:accumulate"
           inkscape:connector-curvature="0" />
      </g>
    </g>
  </g>
</svg>
